<?xml version="1.0" encoding="UTF-8"?>
<svg xmlns="http://www.w3.org/2000/svg" xmlns:xlink="http://www.w3.org/1999/xlink" viewBox="0 0 750 500">
  <defs>
    <style>
      .cls-1 {
        fill: url(#linear-gradient-2);
      }

      .cls-2 {
        filter: url(#drop-shadow-7);
      }

      .cls-3, .cls-4, .cls-5, .cls-6, .cls-7, .cls-8, .cls-9, .cls-10 {
        fill: #fff;
      }

      .cls-11 {
        font-size: 13px;
        letter-spacing: 0em;
      }

      .cls-11, .cls-12, .cls-13 {
        fill: #383579;
      }

      .cls-11, .cls-12, .cls-13, .cls-14 {
        font-family: MicrosoftSansSerif, 'Microsoft Sans Serif';
      }

      .cls-15 {
        fill: url(#linear-gradient-6);
      }

      .cls-16 {
        stroke: #9e94ff;
        stroke-width: 2.12px;
      }

      .cls-16, .cls-17, .cls-18, .cls-19, .cls-20, .cls-21, .cls-22, .cls-23 {
        stroke-miterlimit: 10;
      }

      .cls-16, .cls-24 {
        fill: none;
      }

      .cls-25 {
        isolation: isolate;
      }

      .cls-4 {
        filter: url(#drop-shadow-4);
      }

      .cls-26 {
        filter: url(#drop-shadow-3);
      }

      .cls-27 {
        mix-blend-mode: soft-light;
      }

      .cls-28 {
        filter: url(#drop-shadow-11);
      }

      .cls-29 {
        fill: url(#linear-gradient);
        filter: url(#drop-shadow-1);
      }

      .cls-30 {
        fill: url(#linear-gradient-10);
      }

      .cls-5 {
        filter: url(#drop-shadow-2);
      }

      .cls-17 {
        fill: url(#linear-gradient-5);
      }

      .cls-17, .cls-18, .cls-19, .cls-21, .cls-22, .cls-23 {
        stroke-width: 3px;
      }

      .cls-17, .cls-19, .cls-21, .cls-22, .cls-23 {
        stroke: #fff;
      }

      .cls-12 {
        font-size: 17.32px;
        letter-spacing: .3em;
      }

      .cls-6 {
        filter: url(#drop-shadow-8);
      }

      .cls-7 {
        font-family: Anton-Regular, 'Anton Regular';
        font-size: 15.4px;
        letter-spacing: 0em;
      }

      .cls-18 {
        fill: url(#linear-gradient-11);
        stroke: #fcfcfc;
      }

      .cls-31 {
        filter: url(#drop-shadow-5);
      }

      .cls-13 {
        font-size: 18px;
        letter-spacing: 0em;
      }

      .cls-19 {
        fill: url(#linear-gradient-7);
      }

      .cls-20 {
        fill: #7769ff;
        font-size: 41.62px;
        letter-spacing: .2em;
        stroke: #7769ff;
      }

      .cls-32 {
        clip-path: url(#clippath);
      }

      .cls-21 {
        fill: url(#linear-gradient-3);
      }

      .cls-22 {
        fill: url(#linear-gradient-9);
      }

      .cls-33 {
        filter: url(#drop-shadow-9);
      }

      .cls-8 {
        filter: url(#drop-shadow-6);
      }

      .cls-9 {
        filter: url(#drop-shadow-12);
      }

      .cls-34 {
        filter: url(#drop-shadow-13);
      }

      .cls-10 {
        filter: url(#drop-shadow-10);
      }

      .cls-23 {
        fill: url(#linear-gradient-13);
      }

      .cls-35 {
        fill: #9e94ff;
        font-size: 27.75px;
        letter-spacing: 0em;
      }

      .cls-36 {
        fill: url(#linear-gradient-4);
      }

      .cls-37 {
        fill: url(#linear-gradient-8);
      }

      .cls-38 {
        fill: url(#linear-gradient-12);
      }

      .cls-39 {
        fill: #fcfcfc;
      }
    </style>
    <clipPath id="clippath">
      <rect class="cls-24" width="750" height="500"/>
    </clipPath>
    <linearGradient id="linear-gradient" x1="-17.23" y1="260.02" x2="841.43" y2="260.02" gradientUnits="userSpaceOnUse">
      <stop offset="0" stop-color="#8e7aff"/>
      <stop offset="1" stop-color="#9e94ff"/>
    </linearGradient>
    <filter id="drop-shadow-1" filterUnits="userSpaceOnUse">
      <feOffset dx="-10" dy="13"/>
      <feGaussianBlur result="blur" stdDeviation="2.45"/>
      <feFlood flood-color="#3913a0" flood-opacity=".1"/>
      <feComposite in2="blur" operator="in"/>
      <feComposite in="SourceGraphic"/>
    </filter>
    <filter id="drop-shadow-2" filterUnits="userSpaceOnUse">
      <feOffset dx="-6.76" dy="5.41"/>
      <feGaussianBlur result="blur-2" stdDeviation="2.71"/>
      <feFlood flood-color="#3913a0" flood-opacity=".16"/>
      <feComposite in2="blur-2" operator="in"/>
      <feComposite in="SourceGraphic"/>
    </filter>
    <linearGradient id="linear-gradient-2" x1="61.46" y1="347.26" x2="93.31" y2="347.26" gradientUnits="userSpaceOnUse">
      <stop offset="0" stop-color="#7399f5"/>
      <stop offset="1" stop-color="#87adff"/>
    </linearGradient>
    <filter id="drop-shadow-3" filterUnits="userSpaceOnUse">
      <feOffset dx="-6.61" dy="5.29"/>
      <feGaussianBlur result="blur-3" stdDeviation="2.64"/>
      <feFlood flood-color="#3913a0" flood-opacity=".16"/>
      <feComposite in2="blur-3" operator="in"/>
      <feComposite in="SourceGraphic"/>
    </filter>
    <linearGradient id="linear-gradient-3" x1="117.14" y1="411.98" x2="148.37" y2="411.98" gradientTransform="translate(492.17 170.8) rotate(74)" xlink:href="#linear-gradient-2"/>
    <filter id="drop-shadow-4" filterUnits="userSpaceOnUse">
      <feOffset dx="-6.76" dy="5.41"/>
      <feGaussianBlur result="blur-4" stdDeviation="2.71"/>
      <feFlood flood-color="#3913a0" flood-opacity=".16"/>
      <feComposite in2="blur-4" operator="in"/>
      <feComposite in="SourceGraphic"/>
    </filter>
    <linearGradient id="linear-gradient-4" x1="73.39" y1="235.95" x2="105.24" y2="235.95" gradientUnits="userSpaceOnUse">
      <stop offset="0" stop-color="#e4777f"/>
      <stop offset="1" stop-color="#f88b93"/>
    </linearGradient>
    <filter id="drop-shadow-5" filterUnits="userSpaceOnUse">
      <feOffset dx="-6.61" dy="5.29"/>
      <feGaussianBlur result="blur-5" stdDeviation="2.64"/>
      <feFlood flood-color="#3913a0" flood-opacity=".16"/>
      <feComposite in2="blur-5" operator="in"/>
      <feComposite in="SourceGraphic"/>
    </filter>
    <linearGradient id="linear-gradient-5" x1="246.77" y1="235.95" x2="277.99" y2="235.95" gradientTransform="translate(243.69 -116.42) rotate(45)" xlink:href="#linear-gradient-4"/>
    <filter id="drop-shadow-6" filterUnits="userSpaceOnUse">
      <feOffset dx="-6.76" dy="5.41"/>
      <feGaussianBlur result="blur-6" stdDeviation="2.71"/>
      <feFlood flood-color="#3913a0" flood-opacity=".16"/>
      <feComposite in2="blur-6" operator="in"/>
      <feComposite in="SourceGraphic"/>
    </filter>
    <linearGradient id="linear-gradient-6" x1="355.8" y1="254.7" x2="387.64" y2="254.7" gradientUnits="userSpaceOnUse">
      <stop offset="0" stop-color="#e39e40"/>
      <stop offset="1" stop-color="#f7b254"/>
    </linearGradient>
    <filter id="drop-shadow-7" filterUnits="userSpaceOnUse">
      <feOffset dx="-6.61" dy="5.29"/>
      <feGaussianBlur result="blur-7" stdDeviation="2.64"/>
      <feFlood flood-color="#3913a0" flood-opacity=".16"/>
      <feComposite in2="blur-7" operator="in"/>
      <feComposite in="SourceGraphic"/>
    </filter>
    <linearGradient id="linear-gradient-7" x1="411.55" y1="320.29" x2="442.78" y2="320.29" xlink:href="#linear-gradient-6"/>
    <filter id="drop-shadow-8" filterUnits="userSpaceOnUse">
      <feOffset dx="-6.76" dy="5.41"/>
      <feGaussianBlur result="blur-8" stdDeviation="2.71"/>
      <feFlood flood-color="#3913a0" flood-opacity=".16"/>
      <feComposite in2="blur-8" operator="in"/>
      <feComposite in="SourceGraphic"/>
    </filter>
    <linearGradient id="linear-gradient-8" x1="556.83" y1="45.53" x2="588.68" y2="45.53" gradientUnits="userSpaceOnUse">
      <stop offset="0" stop-color="#7ddebb"/>
      <stop offset="1" stop-color="#91f2cf"/>
    </linearGradient>
    <filter id="drop-shadow-9" filterUnits="userSpaceOnUse">
      <feOffset dx="-6.61" dy="5.29"/>
      <feGaussianBlur result="blur-9" stdDeviation="2.64"/>
      <feFlood flood-color="#3913a0" flood-opacity=".16"/>
      <feComposite in2="blur-9" operator="in"/>
      <feComposite in="SourceGraphic"/>
    </filter>
    <linearGradient id="linear-gradient-9" x1="612.51" y1="111.11" x2="643.74" y2="111.11" gradientTransform="translate(640.27 -526.65) rotate(81.06)" xlink:href="#linear-gradient-8"/>
    <filter id="drop-shadow-10" filterUnits="userSpaceOnUse">
      <feOffset dx="-6.76" dy="5.41"/>
      <feGaussianBlur result="blur-10" stdDeviation="2.71"/>
      <feFlood flood-color="#3913a0" flood-opacity=".16"/>
      <feComposite in2="blur-10" operator="in"/>
      <feComposite in="SourceGraphic"/>
    </filter>
    <linearGradient id="linear-gradient-10" x1="496.43" y1="173.89" x2="528.27" y2="173.89" gradientUnits="userSpaceOnUse">
      <stop offset="0" stop-color="#db8ded"/>
      <stop offset="1" stop-color="#efa1ff"/>
    </linearGradient>
    <filter id="drop-shadow-11" filterUnits="userSpaceOnUse">
      <feOffset dx="-6.61" dy="5.29"/>
      <feGaussianBlur result="blur-11" stdDeviation="2.64"/>
      <feFlood flood-color="#3913a0" flood-opacity=".16"/>
      <feComposite in2="blur-11" operator="in"/>
      <feComposite in="SourceGraphic"/>
    </filter>
    <linearGradient id="linear-gradient-11" x1="552.18" y1="239.48" x2="583.41" y2="239.48" xlink:href="#linear-gradient-10"/>
    <filter id="drop-shadow-12" filterUnits="userSpaceOnUse">
      <feOffset dx="-6.76" dy="5.41"/>
      <feGaussianBlur result="blur-12" stdDeviation="2.71"/>
      <feFlood flood-color="#3913a0" flood-opacity=".16"/>
      <feComposite in2="blur-12" operator="in"/>
      <feComposite in="SourceGraphic"/>
    </filter>
    <linearGradient id="linear-gradient-12" x1="479.18" y1="395.81" x2="511.02" y2="395.81" gradientUnits="userSpaceOnUse">
      <stop offset="0" stop-color="#83caf5"/>
      <stop offset="1" stop-color="#97deff"/>
    </linearGradient>
    <filter id="drop-shadow-13" filterUnits="userSpaceOnUse">
      <feOffset dx="-6.61" dy="5.29"/>
      <feGaussianBlur result="blur-13" stdDeviation="2.64"/>
      <feFlood flood-color="#3913a0" flood-opacity=".16"/>
      <feComposite in2="blur-13" operator="in"/>
      <feComposite in="SourceGraphic"/>
    </filter>
    <linearGradient id="linear-gradient-13" x1="534.85" y1="328.98" x2="566.08" y2="328.98" xlink:href="#linear-gradient-12"/>
  </defs>
  <g class="cls-25">
    <g id="Layer_2" data-name="Layer 2">
      <g id="OBJECTS">
        <g class="cls-32">
          <g>
            <path class="cls-29" d="M13.18,528.08l-30.41-30.41,77.24-77.24c19.61-19.61,45.63-30.38,73.33-30.38,.24,0,.49,0,.73,0,27.98,.19,54.13,11.34,73.64,31.39,8.04,8.27,18.83,12.86,30.36,12.94,.1,0,.2,0,.3,0,11.42,0,22.15-4.44,30.23-12.53,16.33-16.33,16.61-43.18,.62-59.85l-24.02-25.04c-31.65-31.83-31.59-83.47,.17-115.24,15.56-15.56,36.2-24.06,58.24-23.9,22,.14,42.57,8.9,57.92,24.66,27.01,27.72,62.22,63.86,91.23,93.61,21.62,22.18,57.4,22.78,79.75,1.32l1.47-1.41c11.7-11.23,18.23-26.26,18.38-42.34,.16-15.95-5.98-30.94-17.28-42.21l-27.47-27.42c-15.59-15.56-24.18-36.26-24.19-58.28,0-22.02,8.56-42.73,24.14-58.3l2.46-2.46c15.67-15.67,36.38-24.35,58.31-24.43,.1,0,.2,0,.3,0,21.84,0,42.35,8.51,57.8,23.98l1.54,1.54c11.87,11.88,27.65,18.43,44.45,18.44h.02c16.79,0,32.57-6.54,44.43-18.4L811.03-8.04l30.41,30.41-94.14,94.14c-19.99,19.99-46.57,31-74.84,31h-.04c-28.28,0-54.87-11.04-74.86-31.05l-1.54-1.54c-7.33-7.34-17.05-11.37-27.39-11.37-.05,0-.09,0-.14,0-10.5,.04-20.47,4.24-28.06,11.83l-2.46,2.46c-7.45,7.45-11.55,17.35-11.54,27.88,0,10.53,4.11,20.43,11.57,27.87l27.47,27.41c19.55,19.51,30.17,45.46,29.9,73.07-.27,27.74-11.5,53.65-31.61,72.95l-1.47,1.41c-19.09,18.32-44.2,28.15-70.64,27.74-26.46-.44-51.21-11.12-69.68-30.07-29.01-29.76-64.23-65.89-91.24-93.62-7.26-7.45-16.99-11.6-27.4-11.66-10.41-.05-20.19,3.95-27.56,11.31-7.29,7.29-11.31,16.99-11.31,27.3s4.02,20.01,11.31,27.3l.31,.32,24.17,25.19c15.63,16.29,24.11,37.69,23.87,60.27-.23,22.57-9.15,43.8-25.12,59.76-16.21,16.21-37.72,25.12-60.63,25.12-.2,0-.4,0-.6,0-23.13-.16-44.75-9.38-60.88-25.95-11.42-11.74-26.74-18.27-43.12-18.38-.14,0-.29,0-.43,0-16.22,0-31.45,6.31-42.94,17.79L13.18,528.08Z"/>
            <g class="cls-27">
              <path class="cls-3" d="M11.71,501.26l-2.12-2.12,8.43-8.43,2.12,2.12-8.43,8.43Zm16.86-16.86l-2.12-2.12,8.43-8.43,2.12,2.12-8.43,8.43Zm16.86-16.86l-2.12-2.12,8.43-8.43,2.12,2.12-8.43,8.43Zm192.93-10.15c-3.63,0-7.29-.3-10.87-.9l.49-2.96c3.82,.64,7.72,.92,11.6,.85l.06,3c-.43,0-.85,.01-1.28,.01Zm13.39-1.37l-.61-2.94c3.8-.79,7.54-1.93,11.12-3.4l1.14,2.78c-3.75,1.54-7.67,2.74-11.65,3.57Zm-36.04-2.63c-3.81-1.4-7.52-3.16-11-5.24l1.54-2.58c3.33,1.98,6.86,3.67,10.5,5l-1.03,2.82Zm-153.42-2.71l-2.12-2.12,8.43-8.43,2.12,2.12-8.43,8.43Zm211.9-3.89l-1.64-2.51c3.23-2.11,6.3-4.54,9.12-7.22l2.07,2.17c-2.95,2.81-6.16,5.36-9.55,7.56Zm-79.32-5.83c-1.25-1.1-2.47-2.27-3.64-3.47-1.6-1.64-3.28-3.23-5-4.72l1.97-2.27c1.78,1.55,3.52,3.19,5.18,4.9,1.12,1.15,2.29,2.26,3.48,3.32l-1.99,2.25Zm-115.69-7.02l-2.02-2.22c3-2.72,6.21-5.24,9.55-7.48l1.67,2.49c-3.22,2.16-6.32,4.59-9.21,7.21Zm212.58-3.89l-2.43-1.76c2.27-3.14,4.25-6.52,5.89-10.02l2.72,1.27c-1.72,3.68-3.8,7.21-6.18,10.51Zm-114.88-4.29c-3.27-2.1-6.73-3.97-10.28-5.57l1.23-2.73c3.68,1.66,7.27,3.6,10.66,5.78l-1.62,2.53Zm-78.33-4.83l-1.29-2.71c3.64-1.74,7.44-3.23,11.3-4.42l.89,2.87c-3.72,1.15-7.38,2.58-10.89,4.26Zm57.07-4.76c-3.74-1.07-7.59-1.87-11.45-2.39l.4-2.97c4,.54,8,1.37,11.87,2.48l-.82,2.88Zm-34.78-2.14l-.46-2.96c3.98-.62,8.05-.96,12.09-1l.03,3c-3.89,.04-7.82,.37-11.66,.97Zm181.23-5.96l-2.91-.75c.96-3.75,1.58-7.61,1.84-11.48l2.99,.2c-.27,4.05-.92,8.1-1.93,12.03Zm-1.36-23.86c-.45-3.85-1.27-7.68-2.43-11.37l2.86-.89c1.21,3.87,2.07,7.88,2.54,11.92l-2.98,.35Zm-6.92-22.1c-1.82-3.41-3.97-6.68-6.4-9.7l2.34-1.88c2.54,3.17,4.8,6.59,6.71,10.17l-2.65,1.41Zm199.53-5.91c-2.03,0-4.1-.08-6.13-.23l.23-2.99c3.88,.3,7.81,.3,11.69,0l.22,2.99c-1.99,.15-4.02,.23-6.01,.23Zm18.01-2.05l-.68-2.92c3.79-.88,7.54-2.05,11.15-3.5l1.12,2.79c-3.74,1.5-7.64,2.72-11.58,3.63Zm-36.14-.03c-3.94-.92-7.83-2.14-11.58-3.65l1.12-2.78c3.61,1.45,7.36,2.63,11.14,3.51l-.68,2.92Zm58.62-8.97l-1.53-2.58c3.34-1.97,6.56-4.23,9.57-6.7l1.9,2.32c-3.13,2.57-6.48,4.91-9.95,6.96Zm-81.09-.06c-3.47-2.06-6.81-4.4-9.94-6.98l1.91-2.32c3.01,2.48,6.22,4.73,9.56,6.71l-1.53,2.58Zm-173.3-1.36l-8.26-8.6,2.17-2.08,8.26,8.6-2.16,2.08Zm273.18-13.81l-2.17-2.07c2.7-2.83,5.2-5.87,7.43-9.03l2.45,1.73c-2.32,3.28-4.92,6.43-7.71,9.37Zm-118.58-.12l-8.33-8.54,2.15-2.09,8.33,8.54-2.15,2.09Zm-171.11-3.29l-3.4-3.54c-1.67-1.67-3.28-3.47-4.76-5.34l2.35-1.86c1.41,1.78,2.94,3.5,4.55,5.11l3.42,3.57-2.16,2.08Zm154.46-13.8l-8.33-8.54,2.15-2.09,8.33,8.54-2.15,2.09Zm149.2-2.56l-2.68-1.35c1.75-3.47,3.26-7.1,4.49-10.8l2.85,.94c-1.27,3.83-2.84,7.6-4.66,11.21Zm-318.4-2.8c-1.84-3.62-3.33-7.45-4.42-11.37l2.89-.8c1.04,3.73,2.45,7.37,4.2,10.82l-2.67,1.36Zm152.55-11.73l-8.33-8.54,2.15-2.09,8.33,8.54-2.15,2.09Zm173.46-8.45l-2.95-.51c.67-3.83,1.05-7.75,1.15-11.64l3,.07c-.1,4.04-.5,8.1-1.19,12.08Zm-332.52-3.21c-.11-1.5-.17-3.02-.17-4.53,0-2.55,.16-5.13,.48-7.67l2.98,.37c-.3,2.41-.45,4.86-.45,7.29,0,1.44,.05,2.89,.16,4.31l-2.99,.22Zm142.41-5.42l-8.32-8.54,2.15-2.09,8.32,8.54-2.15,2.09Zm187.73-15.19c-.48-3.86-1.25-7.72-2.29-11.46l2.89-.8c1.08,3.89,1.88,7.89,2.37,11.9l-2.98,.37Zm-204.38-1.89l-8.32-8.54,2.15-2.09,8.33,8.54-2.15,2.09Zm-119.91-.64l-2.85-.95c1.29-3.86,2.97-7.61,5-11.13l2.6,1.5c-1.93,3.35-3.53,6.91-4.75,10.59Zm103.26-16.44l-5.69-5.84c-.86-.88-1.75-1.74-2.65-2.55l2.02-2.22c.94,.86,1.88,1.76,2.78,2.68l5.69,5.84-2.15,2.09Zm214.77-3.49c-1.59-3.55-3.46-7.01-5.56-10.28l2.53-1.62c2.18,3.4,4.12,6.99,5.77,10.68l-2.74,1.22Zm-306.52-.09l-2.25-1.98c.88-1,1.81-2,2.76-2.95,1.93-1.93,4-3.74,6.14-5.39l1.83,2.38c-2.04,1.57-4.01,3.29-5.85,5.13-.91,.91-1.79,1.85-2.63,2.81Zm74.08-11.73c-3.32-1.98-6.86-3.64-10.51-4.92l1-2.83c3.84,1.35,7.56,3.09,11.05,5.18l-1.54,2.58Zm-55.74-2.31l-1.32-2.7c3.65-1.78,7.5-3.21,11.44-4.24l.76,2.9c-3.75,.98-7.41,2.33-10.88,4.03Zm33.95-5.36c-3.82-.54-7.74-.7-11.6-.48l-.17-3c4.05-.24,8.17-.06,12.19,.5l-.42,2.97Zm241.64-.14c-1.19-1.36-2.44-2.7-3.72-3.98l-4.49-4.48,2.1-2.14,4.51,4.5c1.33,1.33,2.63,2.71,3.86,4.13l-2.26,1.97Zm-16.68-16.9l-8.44-8.42,2.12-2.12,8.44,8.42-2.12,2.12Zm-16.87-16.97c-2.73-3.03-5.16-6.34-7.23-9.82l2.58-1.53c1.97,3.31,4.29,6.46,6.88,9.35l-2.23,2.01Zm-12.41-20.87c-1.35-3.83-2.33-7.82-2.91-11.85l2.97-.43c.55,3.84,1.49,7.63,2.77,11.28l-2.83,1Zm-.48-23.88l-3-.15c.21-4.07,.82-8.12,1.81-12.06l2.91,.73c-.94,3.75-1.52,7.61-1.72,11.48Zm168.34-15.17l-.08-3c3.89-.11,7.81-.49,11.65-1.15l.5,2.96c-3.97,.68-8.03,1.08-12.07,1.19Zm-12.11-.52c-4.01-.45-8.02-1.2-11.92-2.21l.75-2.9c3.76,.98,7.63,1.69,11.51,2.13l-.34,2.98Zm35.96-3.54l-.91-2.86c3.71-1.19,7.36-2.65,10.86-4.35l1.31,2.7c-3.62,1.76-7.41,3.28-11.26,4.51Zm-59.38-2.53c-3.72-1.55-7.37-3.39-10.83-5.46l1.54-2.58c3.34,1.99,6.86,3.77,10.45,5.27l-1.16,2.77Zm-127.17-.65l-2.71-1.29c1.74-3.67,3.86-7.19,6.29-10.45l2.41,1.79c-2.31,3.11-4.33,6.45-5.99,9.95Zm208.3-7.38l-1.68-2.49c3.22-2.17,6.31-4.6,9.21-7.22l2.01,2.22c-3,2.71-6.21,5.23-9.54,7.48Zm-101.91-4.36c-2.37-1.92-4.67-3.99-6.84-6.16l-2.02-2.02,2.1-2.14,2.05,2.04c2.09,2.1,4.31,4.1,6.6,5.95l-1.89,2.33Zm-92.6-6.91l-2.12-2.12,.34-.34c2.77-2.77,5.8-5.3,8.99-7.5l1.7,2.47c-3.04,2.1-5.92,4.5-8.57,7.15l-.34,.34Zm212.61-4.63l-2.12-2.12,8.43-8.43,2.12,2.12-8.43,8.43Zm-137.92-3.92c-3.24-2.11-6.71-3.91-10.3-5.34l1.11-2.79c3.78,1.5,7.42,3.39,10.83,5.62l-1.64,2.51Zm-55.62-4.58l-1.19-2.75c3.73-1.62,7.64-2.88,11.61-3.74l.63,2.93c-3.78,.82-7.5,2.02-11.05,3.56Zm34.16-3.96c-3.46-.63-7.01-.95-10.54-.95-.34,0-.69,0-1.03,0l-.05-3c.36,0,.72,0,1.09,0,3.71,0,7.43,.34,11.07,1l-.54,2.95Zm176.25-4.41l-2.12-2.12,8.43-8.43,2.12,2.12-8.43,8.43Zm16.86-16.86l-2.12-2.12,8.43-8.43,2.12,2.12-8.43,8.43Zm16.86-16.86l-2.12-2.12,8.43-8.43,2.12,2.12-8.43,8.43Zm16.86-16.86l-2.12-2.12,8.43-8.43,2.12,2.12-8.43,8.43Z"/>
            </g>
          </g>
        </g>
        <g>
          <g>
            <g>
              <path class="cls-5" d="M51.38,326.49v41.55c0,2.21,1.79,4,4,4h56.78c.97,0,1.91,.35,2.64,1l15.31,13.45c1.51,1.33,3.77,1.33,5.28,0l15.3-13.45c.73-.64,1.67-1,2.64-1h56.78c2.21,0,4-1.79,4-4v-41.55c0-2.21-1.79-4-4-4H55.38c-2.21,0-4,1.79-4,4Z"/>
              <g>
                <g>
                  <rect class="cls-1" x="61.46" y="331.34" width="31.84" height="31.84" rx="5.29" ry="5.29"/>
                  <path class="cls-3" d="M85.41,351.99c-.87,0-1.62,.56-1.89,1.34h-1.45v-5.44h1.34c2.21,0,4.01-1.8,4.01-4.01s-1.75-3.91-3.81-4.01c-.77-1.62-2.41-2.68-4.21-2.68-.16,0-.31,.01-.45,.03-.98-.88-2.24-1.37-3.56-1.37-2.51,0-4.67,1.78-5.2,4.2-1.66,.51-2.82,2.05-2.82,3.83,0,2.21,1.8,4.01,4.01,4.01h1.34v5.44h-1.45c-.28-.78-1.02-1.34-1.89-1.34-1.11,0-2.01,.9-2.01,2.01s.9,2.01,2.01,2.01c.87,0,1.62-.56,1.89-1.34h2.12c.37,0,.67-.3,.67-.67v-6.11h2.68v6.89c-.78,.28-1.34,1.02-1.34,1.89,0,1.11,.9,2.01,2.01,2.01s2.01-.9,2.01-2.01c0-.87-.56-1.62-1.34-1.89v-6.89h2.68v6.11c0,.37,.3,.67,.67,.67h2.12c.28,.78,1.02,1.34,1.89,1.34,1.11,0,2.01-.9,2.01-2.01s-.9-2.01-2.01-2.01Zm-16.06,2.68c-.37,0-.67-.3-.67-.67s.3-.67,.67-.67,.67,.3,.67,.67-.3,.67-.67,.67Zm8.03,2.68c-.37,0-.67-.3-.67-.67s.3-.67,.67-.67,.67,.3,.67,.67-.3,.67-.67,.67Zm-8.7-13.47c0-1.29,.92-2.39,2.19-2.63,.02,0,.05-.01,.07-.02,.49-.08,1-.02,1.46,.18,.34,.14,.73-.02,.88-.36,.14-.34-.02-.73-.36-.88-.42-.18-.86-.28-1.31-.31,.55-1.57,2.05-2.68,3.76-2.68,1.08,0,2.1,.43,2.86,1.21,.15,.16,.37,.23,.59,.19,.17-.03,.37-.06,.56-.06,1.14,0,2.18,.59,2.79,1.53-.11,.04-.23,.08-.34,.12-.34,.14-.5,.54-.36,.88,.14,.34,.54,.5,.88,.36,1.75-.74,3.72,.55,3.72,2.47,0,1.48-1.2,2.68-2.68,2.68h-12.04c-1.48,0-2.68-1.2-2.68-2.68Zm16.73,10.79c-.37,0-.67-.3-.67-.67s.3-.67,.67-.67,.67,.3,.67,.67-.3,.67-.67,.67Z"/>
                </g>
                <text class="cls-11" transform="translate(101.07 351.03)"><tspan x="0" y="0">Team Expension</tspan></text>
              </g>
            </g>
            <g class="cls-26">
              <circle class="cls-21" cx="132.75" cy="411.98" r="15.61" transform="translate(-299.86 426.02) rotate(-74)"/>
              <text class="cls-7" transform="translate(124.7 418.54)"><tspan x="0" y="0">01</tspan></text>
            </g>
          </g>
          <g>
            <g>
              <path class="cls-4" d="M224.2,222.11v-6.93c0-2.21-1.79-4-4-4H65.46c-2.21,0-4,1.79-4,4v41.55c0,2.21,1.79,4,4,4H220.2c2.21,0,4-1.79,4-4v-6.93c0-1.12,.47-2.19,1.3-2.95l8.67-7.94c1.73-1.59,1.73-4.32,0-5.9l-8.67-7.94c-.83-.76-1.3-1.83-1.3-2.95Z"/>
              <g>
                <g>
                  <rect class="cls-36" x="73.39" y="220.03" width="31.84" height="31.84" rx="5.29" ry="5.29"/>
                  <g>
                    <path class="cls-3" d="M100.19,233.96l-2.56-.5c-.17-.56-.39-1.1-.67-1.62l1.42-2.13c.18-.27,.14-.62-.08-.84l-1.89-1.89c-.23-.23-.58-.26-.84-.08l-2.13,1.42c-.52-.28-1.06-.5-1.62-.67l-.5-2.56c-.06-.31-.34-.54-.66-.54h-2.68c-.32,0-.59,.23-.66,.54l-.5,2.56c-.56,.17-1.1,.39-1.62,.67l-2.13-1.42c-.27-.18-.62-.14-.84,.08l-1.89,1.89c-.23,.23-.26,.58-.08,.84l1.42,2.13c-.28,.52-.5,1.06-.67,1.62l-2.56,.5c-.31,.06-.54,.34-.54,.66v2.68c0,.32,.23,.59,.54,.66l2.56,.5c.17,.56,.39,1.1,.67,1.62l-1.42,2.13c-.18,.27-.14,.62,.08,.84l1.89,1.89c.23,.23,.58,.26,.84,.08l2.13-1.42c.52,.28,1.06,.5,1.62,.67l.5,2.56c.06,.31,.34,.54,.66,.54h2.68c.32,0,.59-.23,.66-.54l.5-2.56c.56-.17,1.1-.39,1.62-.67l2.13,1.42c.27,.18,.62,.14,.84-.08l1.89-1.89c.23-.23,.26-.58,.08-.84l-1.42-2.13c.28-.52,.5-1.06,.67-1.62l2.56-.5c.31-.06,.54-.34,.54-.66v-2.68c0-.32-.23-.59-.54-.66Zm-.8,2.78l-2.42,.48c-.25,.05-.46,.24-.52,.5-.18,.72-.46,1.4-.85,2.04-.13,.22-.13,.5,.02,.72l1.35,2.02-1.12,1.12-2.02-1.35c-.22-.14-.5-.15-.72-.02-.63,.38-1.32,.67-2.04,.85-.25,.06-.45,.27-.5,.52l-.48,2.42h-1.58l-.48-2.42c-.05-.26-.24-.46-.5-.52-.72-.18-1.4-.46-2.04-.85-.22-.13-.5-.13-.72,.02l-2.02,1.35-1.12-1.12,1.35-2.02c.14-.22,.15-.5,.02-.72-.38-.63-.67-1.32-.85-2.04-.06-.25-.27-.45-.52-.5l-2.42-.48v-1.58l2.42-.48c.26-.05,.46-.24,.52-.5,.18-.72,.46-1.4,.85-2.04,.13-.22,.13-.5-.02-.72l-1.35-2.02,1.12-1.12,2.02,1.35c.22,.14,.5,.15,.72,.02,.63-.38,1.32-.67,2.04-.85,.25-.06,.45-.27,.5-.52l.48-2.42h1.58l.48,2.42c.05,.26,.24,.46,.5,.52,.72,.18,1.4,.46,2.04,.85,.22,.13,.5,.13,.72-.02l2.02-1.35,1.12,1.12-1.35,2.02c-.14,.22-.15,.5-.02,.72,.38,.63,.67,1.32,.85,2.04,.06,.25,.27,.45,.52,.5l2.42,.48v1.58Z"/>
                    <path class="cls-3" d="M89.32,229.93c-3.32,0-6.02,2.7-6.02,6.02s2.7,6.02,6.02,6.02,6.02-2.7,6.02-6.02-2.7-6.02-6.02-6.02Zm0,10.7c-2.58,0-4.68-2.1-4.68-4.68s2.1-4.68,4.68-4.68,4.68,2.1,4.68,4.68-2.1,4.68-4.68,4.68Z"/>
                    <path class="cls-3" d="M89.32,232.61c-1.84,0-3.34,1.5-3.34,3.35s1.5,3.34,3.34,3.34,3.35-1.5,3.35-3.34-1.5-3.35-3.35-3.35Zm0,5.35c-1.11,0-2.01-.9-2.01-2.01s.9-2.01,2.01-2.01,2.01,.9,2.01,2.01-.9,2.01-2.01,2.01Z"/>
                  </g>
                </g>
                <text class="cls-11" transform="translate(111.88 234.03)"><tspan x="0" y="0">Insurance Model </tspan><tspan x="0" y="11.96">Elaboration</tspan></text>
              </g>
            </g>
            <g class="cls-31">
              <circle class="cls-17" cx="262.38" cy="235.95" r="15.61" transform="translate(-89.99 254.64) rotate(-45)"/>
              <text class="cls-7" transform="translate(254.32 242.5)"><tspan x="0" y="0">02</tspan></text>
            </g>
          </g>
          <g>
            <g>
              <path class="cls-8" d="M345.72,233.93v41.55c0,2.21,1.79,4,4,4h56.78c.97,0,1.91,.35,2.64,1l15.3,13.45c1.51,1.33,3.77,1.33,5.28,0l15.3-13.45c.73-.64,1.67-1,2.64-1h56.78c2.21,0,4-1.79,4-4v-41.55c0-2.21-1.79-4-4-4h-154.74c-2.21,0-4,1.79-4,4Z"/>
              <g>
                <g>
                  <rect class="cls-15" x="355.8" y="238.78" width="31.84" height="31.84" rx="5.29" ry="5.29"/>
                  <path class="cls-39" d="M383.94,255.47h.32c.42,0,.76-.34,.76-.76s-.34-.76-.76-.76h-.32l1-1.93c.26-.51-.11-1.11-.68-1.11h-2.99c-.74-2.09-2.1-3.96-3.88-5.3-2-1.51-4.38-2.31-6.89-2.31-6.32,0-11.47,5.12-11.47,11.42s5.14,11.42,11.47,11.42c2.51,0,4.89-.8,6.89-2.31,1.78-1.35,3.14-3.21,3.88-5.3h2.99c.57,0,.94-.6,.68-1.11l-1-1.93Zm-1.71-1.52h-2.87l.76-1.52h2.9l-.79,1.52Zm-6.44,0c-.37-2.58-2.59-4.57-5.27-4.57-2.94,0-5.33,2.39-5.33,5.33s2.39,5.33,5.33,5.33c2.68,0,4.9-1.99,5.27-4.57h1.53c-.38,3.42-3.29,6.09-6.81,6.09-3.78,0-6.85-3.07-6.85-6.85s3.07-6.85,6.85-6.85c3.52,0,6.43,2.67,6.81,6.09h-1.53Zm-3.12,0c-.31-.89-1.16-1.52-2.15-1.52-1.26,0-2.28,1.02-2.28,2.28s1.02,2.28,2.28,2.28c.99,0,1.84-.64,2.15-1.52h1.58c-.35,1.74-1.89,3.04-3.73,3.04-2.1,0-3.81-1.71-3.81-3.81s1.71-3.81,3.81-3.81c1.84,0,3.38,1.31,3.73,3.04h-1.58Zm-1.39,.76c0,.42-.34,.76-.76,.76s-.76-.34-.76-.76,.34-.76,.76-.76,.76,.34,.76,.76Zm-.76,9.9c-5.48,0-9.95-4.44-9.95-9.9s4.46-9.9,9.95-9.9c4,0,7.62,2.46,9.14,6.09h0c-.29,0-.55,.16-.68,.42l-.45,.91c-1.06-3.41-4.24-5.9-8-5.9-4.62,0-8.37,3.76-8.37,8.37s3.76,8.37,8.37,8.37c3.76,0,6.94-2.48,8-5.9l.45,.91c.13,.26,.39,.42,.68,.42h0c-1.52,3.63-5.14,6.09-9.14,6.09Zm9.6-7.61l-.76-1.52h2.87l.79,1.52h-2.9Z"/>
                </g>
                <text class="cls-11" transform="translate(391.05 259.76)"><tspan x="0" y="0">Terms &amp; Conditions</tspan></text>
              </g>
            </g>
            <g class="cls-2">
              <circle class="cls-19" cx="427.17" cy="320.29" r="15.61"/>
              <text class="cls-7" transform="translate(419.11 326.84)"><tspan x="0" y="0">03</tspan></text>
            </g>
          </g>
          <g>
            <g>
              <path class="cls-6" d="M546.75,24.75v41.55c0,2.21,1.79,4,4,4h56.78c.97,0,1.91,.35,2.64,1l15.31,13.45c1.51,1.33,3.77,1.33,5.28,0l15.3-13.45c.73-.64,1.67-1,2.64-1h56.78c2.21,0,4-1.79,4-4V24.75c0-2.21-1.79-4-4-4h-154.74c-2.21,0-4,1.79-4,4Z"/>
              <g>
                <g>
                  <rect class="cls-37" x="556.83" y="29.61" width="31.84" height="31.84" rx="5.29" ry="5.29"/>
                  <g>
                    <path class="cls-39" d="M572.76,35.98c-3.64,0-6.61,2.94-6.61,6.61s2.96,6.61,6.61,6.61,6.61-2.94,6.61-6.61-2.96-6.61-6.61-6.61Zm0,11.75c-.1,0-.49-.23-.87-1.24-.11-.29-.21-.62-.29-.96h2.31c-.08,.34-.18,.67-.29,.96-.38,1.02-.77,1.24-.87,1.24Zm-1.4-3.66c-.05-.47-.07-.96-.07-1.47s.03-1,.07-1.47h2.79c.05,.47,.07,.96,.07,1.47s-.03,1-.07,1.47h-2.79Zm-3.53-2.95h2.06c-.04,.48-.07,.98-.07,1.48s.02,.99,.07,1.47h-2.06c-.28-.96-.28-1.99,0-2.95Zm4.93-3.66c.1,0,.49,.23,.87,1.25,.11,.29,.21,.62,.29,.96h-2.31c.08-.34,.18-.67,.29-.96,.38-1.02,.77-1.25,.87-1.25Zm2.87,3.67h2.06c.28,.96,.28,1.98,0,2.94h-2.06c.04-.48,.07-.97,.07-1.47s-.02-.99-.07-1.47Zm1.35-1.47h-1.56c-.12-.59-.29-1.18-.52-1.74,.55,.25,1.06,.6,1.5,1.04,.22,.22,.41,.45,.59,.7Zm-6.36-1.74c-.23,.56-.4,1.15-.52,1.74h-1.56c.17-.25,.37-.48,.58-.7,.44-.44,.95-.79,1.5-1.04Zm-2.08,7.62h1.56c.12,.59,.29,1.18,.52,1.74-.55-.25-1.06-.6-1.5-1.04-.22-.22-.41-.45-.59-.7Zm6.36,1.73c.23-.56,.4-1.15,.52-1.74h1.56c-.17,.25-.37,.48-.58,.7-.44,.44-.95,.79-1.5,1.04Z"/>
                    <path class="cls-39" d="M572.76,32.99c-5.27,0-9.55,4.31-9.55,9.6,0,2.13,.68,4.14,1.98,5.82l6.11,8.19h-4.41c-.41,0-.73,.33-.73,.73s.33,.73,.73,.73h11.76c.41,0,.73-.33,.73-.73s-.33-.73-.73-.73h-4.41l6.25-8.37s0,0,0,0c1.2-1.64,1.83-3.59,1.83-5.63,0-5.29-4.29-9.6-9.55-9.6Zm6.53,14.36l-6.53,8.76s-6.41-8.59-6.41-8.59c-1.09-1.42-1.67-3.13-1.67-4.93,0-4.48,3.63-8.13,8.08-8.13s8.08,3.65,8.08,8.13c0,1.73-.54,3.37-1.55,4.76Z"/>
                  </g>
                </g>
                <text class="cls-11" transform="translate(594.3 49.39)"><tspan x="0" y="0">MVP Launch</tspan></text>
              </g>
            </g>
            <g class="cls-33">
              <circle class="cls-22" cx="628.12" cy="111.11" r="15.61" transform="translate(420.74 714.34) rotate(-81.06)"/>
              <text class="cls-7" transform="translate(620.07 117.67)"><tspan x="0" y="0">06</tspan></text>
            </g>
          </g>
          <g>
            <g>
              <path class="cls-10" d="M486.35,153.12v41.55c0,2.21,1.79,4,4,4h56.78c.97,0,1.91,.35,2.64,1l15.31,13.45c1.51,1.33,3.77,1.33,5.28,0l15.31-13.45c.73-.64,1.67-1,2.64-1h56.78c2.21,0,4-1.79,4-4v-41.55c0-2.21-1.79-4-4-4h-154.74c-2.21,0-4,1.79-4,4Z"/>
              <g>
                <g>
                  <rect class="cls-30" x="496.43" y="157.97" width="31.84" height="31.84" rx="5.29" ry="5.29"/>
                  <g>
                    <path class="cls-3" d="M508.06,178.4h0s0,0,0,0h12.82c.32,0,.59-.21,.68-.51l2.83-9.9c.06-.21,.02-.44-.12-.62-.13-.18-.34-.28-.56-.28h-17.28l-.51-2.27c-.07-.32-.36-.55-.69-.55h-4.24c-.39,0-.71,.32-.71,.71s.32,.71,.71,.71h3.67c.09,.4,2.42,10.88,2.55,11.49-.75,.33-1.28,1.08-1.28,1.95,0,1.17,.95,2.12,2.12,2.12h12.82c.39,0,.71-.32,.71-.71s-.32-.71-.71-.71h-12.82c-.39,0-.71-.32-.71-.71s.32-.71,.71-.71Zm14.71-9.9l-2.42,8.48h-11.72l-1.89-8.48h16.03Z"/>
                    <path class="cls-3" d="M507.35,183.35c0,1.17,.95,2.12,2.12,2.12s2.12-.95,2.12-2.12-.95-2.12-2.12-2.12-2.12,.95-2.12,2.12Zm2.12-.71c.39,0,.71,.32,.71,.71s-.32,.71-.71,.71-.71-.32-.71-.71,.32-.71,.71-.71Z"/>
                    <path class="cls-3" d="M517.35,183.35c0,1.17,.95,2.12,2.12,2.12s2.12-.95,2.12-2.12-.95-2.12-2.12-2.12-2.12,.95-2.12,2.12Zm2.12-.71c.39,0,.71,.32,.71,.71s-.32,.71-.71,.71-.71-.32-.71-.71,.32-.71,.71-.71Z"/>
                  </g>
                </g>
                <text class="cls-11" transform="translate(535.26 177.07)"><tspan x="0" y="0">Marketing Strategy</tspan></text>
              </g>
            </g>
            <g class="cls-28">
              <circle class="cls-18" cx="567.8" cy="239.48" r="15.61"/>
              <text class="cls-7" transform="translate(559.74 246.03)"><tspan x="0" y="0">05</tspan></text>
            </g>
          </g>
          <g>
            <g>
              <path class="cls-9" d="M631.84,416.45v-41.55c0-2.21-1.79-4-4-4h-56.78c-.97,0-1.91-.35-2.64-1l-15.3-13.45c-1.51-1.33-3.77-1.33-5.28,0l-15.3,13.45c-.73,.64-1.67,1-2.64,1h-56.78c-2.21,0-4,1.79-4,4v41.55c0,2.21,1.79,4,4,4h154.74c2.21,0,4-1.79,4-4Z"/>
              <g>
                <g>
                  <rect class="cls-38" x="479.18" y="379.89" width="31.84" height="31.84" rx="5.29" ry="5.29"/>
                  <g>
                    <path class="cls-39" d="M506.44,396.2c.17-.24,.17-.55,0-.79-1.39-1.92-4.08-4.53-6.85-5.88-1.52-.74-3.03-1.12-4.49-1.12s-2.97,.38-4.49,1.12c-2.74,1.34-5.45,3.94-6.85,5.88-.17,.23-.17,.55,0,.79,1.39,1.92,4.08,4.53,6.85,5.88,1.52,.74,3.03,1.12,4.49,1.12,3,0,5.8-1.58,8.06-3.52,1.99-1.71,3.23-3.4,3.28-3.48Zm-11.34,5.65c-3.8,0-7.59-3.11-9.95-6.05,1.13-1.4,5.22-6.05,9.95-6.05,3.8,0,7.58,3.11,9.95,6.05-1.13,1.4-5.22,6.05-9.95,6.05Z"/>
                    <path class="cls-39" d="M495.1,391.11c-2.59,0-4.7,2.11-4.7,4.7s2.11,4.7,4.7,4.7,4.7-2.11,4.7-4.7-2.11-4.7-4.7-4.7Zm0,8.06c-1.85,0-3.36-1.51-3.36-3.36s1.51-3.36,3.36-3.36,3.36,1.51,3.36,3.36-1.51,3.36-3.36,3.36Z"/>
                    <path class="cls-39" d="M495.1,393.79c-1.11,0-2.02,.9-2.02,2.02s.9,2.02,2.02,2.02,2.02-.9,2.02-2.02-.9-2.02-2.02-2.02Zm0,2.69c-.37,0-.67-.3-.67-.67s.3-.67,.67-.67,.67,.3,.67,.67-.3,.67-.67,.67Z"/>
                    <path class="cls-39" d="M505.89,403.25c-.37,0-.67,.3-.67,.67v1.07l-1.54-1.54c-.26-.26-.69-.26-.95,0-.26,.26-.26,.69,0,.95l1.54,1.54h-1.07c-.37,0-.67,.3-.67,.67s.3,.67,.67,.67h2.69c.34,0,.64-.26,.67-.61,0-.02,0-.04,0-.06,0,0,0,0,0,0v-2.69c0-.37-.3-.67-.67-.67Z"/>
                    <path class="cls-39" d="M503.21,385.69h1.07l-1.54,1.54c-.26,.26-.26,.69,0,.95,.13,.13,.3,.2,.48,.2s.34-.07,.48-.2l1.54-1.54v1.07c0,.37,.3,.67,.67,.67s.67-.3,.67-.67v-2.69s0,0,0,0c0-.34-.26-.63-.61-.67-.02,0-.04,0-.07,0h-2.69c-.37,0-.67,.3-.67,.67s.3,.67,.67,.67Z"/>
                    <path class="cls-39" d="M486.99,405.93h-1.07l1.54-1.54c.26-.26,.26-.69,0-.95-.26-.26-.69-.26-.95,0l-1.54,1.54v-1.07c0-.37-.3-.67-.67-.67s-.67,.3-.67,.67v2.69s0,0,0,0c0,.37,.31,.67,.67,.67h2.69c.37,0,.67-.3,.67-.67s-.3-.67-.67-.67Z"/>
                    <path class="cls-39" d="M484.3,388.37c.37,0,.67-.3,.67-.67v-1.07l1.54,1.54c.26,.26,.69,.26,.95,0,.26-.26,.26-.69,0-.95l-1.54-1.54h1.07c.37,0,.67-.3,.67-.67s-.3-.67-.67-.67h-2.69c-.37,0-.67,.3-.67,.67,0,0,0,0,0,0v2.69c0,.37,.3,.67,.67,.67Z"/>
                  </g>
                </g>
                <text class="cls-11" transform="translate(518.35 399.67)"><tspan x="0" y="0">Making Partners</tspan></text>
              </g>
            </g>
            <g class="cls-34">
              <circle class="cls-23" cx="550.47" cy="328.98" r="15.61"/>
              <text class="cls-7" transform="translate(542.41 335.53)"><tspan x="0" y="0">04</tspan></text>
            </g>
          </g>
        </g>
        <g>
          <g>
            <text class="cls-14" transform="translate(60.44 63.94)"><tspan class="cls-35"><tspan x="0" y="0">Roadmap</tspan></tspan><tspan class="cls-20"><tspan x="0" y="41.62">WheelDeal</tspan></tspan></text>
            <text class="cls-12" transform="translate(59.98 146.09)"><tspan x="0" y="0">One car, many drivers.</tspan></text>
            <line class="cls-16" x1="60.44" y1="119.13" x2="368.27" y2="119.13"/>
          </g>
          <text class="cls-13" transform="translate(508.57 471.56)"><tspan x="0" y="0">Roadmap for next 6 months.</tspan></text>
        </g>
      </g>
    </g>
  </g>
</svg>