<svg xmlns="http://www.w3.org/2000/svg" shape-rendering="geometricPrecision" text-rendering="geometricPrecision" viewBox="0 0 1920 1450">
  <path fill="none" stroke="#6d6d6d" stroke-width="25" d="M970 39c436-4 871-27 871 134s-454 210-871 210c-419 0-871-22-871 144s456 201 871 205c401-4 871-15 871 147s-486 222-871 222c-427 0-883-16-879 156s447 164 879 164"/>
  <path fill="none" stroke="#fff" stroke-dasharray="30" stroke-width="3.5" d="M970 39c436-4 871-27 871 134s-454 210-871 210c-419 0-871-22-871 144s456 201 871 205c401-4 871-15 871 147s-486 222-871 222c-427 0-883-16-879 156s447 164 879 164"/>
</svg>
