<?xml version="1.0" encoding="UTF-8"?>
<svg xmlns="http://www.w3.org/2000/svg" xmlns:xlink="http://www.w3.org/1999/xlink" viewBox="0 0 344.55 499.21">
  <defs>
    <style>
      .cls-1 {
        fill: url(#linear-gradient-2);
      }

      .cls-2 {
        filter: url(#drop-shadow-7);
      }

      .cls-3, .cls-4, .cls-5, .cls-6, .cls-7, .cls-8, .cls-9, .cls-10 {
        fill: #fff;
      }

      .cls-11 {
        fill: url(#linear-gradient-6);
      }

      .cls-12 {
        stroke: #9e94ff;
        stroke-width: 2.12px;
      }

      .cls-12, .cls-13, .cls-14, .cls-15, .cls-16, .cls-17, .cls-18, .cls-19, .cls-20 {
        stroke-miterlimit: 10;
      }

      .cls-12, .cls-21 {
        fill: none;
      }

      .cls-22 {
        isolation: isolate;
      }

      .cls-23 {
        letter-spacing: 0em;
      }

      .cls-23, .cls-24, .cls-25, .cls-26 {
        font-size: 8.67px;
      }

      .cls-23, .cls-24, .cls-25, .cls-26, .cls-27, .cls-17 {
        fill: #383579;
      }

      .cls-23, .cls-24, .cls-25, .cls-26, .cls-27, .cls-17, .cls-28 {
        font-family: MicrosoftSansSerif, 'Microsoft Sans Serif';
      }

      .cls-4 {
        filter: url(#drop-shadow-4);
      }

      .cls-29 {
        filter: url(#drop-shadow-3);
      }

      .cls-30 {
        mix-blend-mode: soft-light;
      }

      .cls-31 {
        filter: url(#drop-shadow-11);
      }

      .cls-24, .cls-32 {
        letter-spacing: 0em;
      }

      .cls-33 {
        fill: url(#linear-gradient);
        filter: url(#drop-shadow-1);
      }

      .cls-34 {
        fill: url(#linear-gradient-10);
      }

      .cls-5 {
        filter: url(#drop-shadow-2);
      }

      .cls-13 {
        fill: url(#linear-gradient-5);
      }

      .cls-13, .cls-14, .cls-15, .cls-18, .cls-19, .cls-20 {
        stroke-width: 3px;
      }

      .cls-13, .cls-15, .cls-18, .cls-19, .cls-20 {
        stroke: #fff;
      }

      .cls-25, .cls-35 {
        letter-spacing: .01em;
      }

      .cls-6 {
        filter: url(#drop-shadow-8);
      }

      .cls-14 {
        fill: url(#linear-gradient-11);
        stroke: #fcfcfc;
      }

      .cls-36 {
        filter: url(#drop-shadow-5);
      }

      .cls-27 {
        font-size: 11.54px;
        letter-spacing: .3em;
      }

      .cls-15 {
        fill: url(#linear-gradient-7);
      }

      .cls-16 {
        fill: #7769ff;
        font-size: 27.74px;
        letter-spacing: .2em;
        stroke: #7769ff;
      }

      .cls-17 {
        font-size: 16px;
        letter-spacing: .01em;
        stroke: #383579;
      }

      .cls-37 {
        clip-path: url(#clippath);
      }

      .cls-18 {
        fill: url(#linear-gradient-3);
      }

      .cls-19 {
        fill: url(#linear-gradient-9);
      }

      .cls-38 {
        filter: url(#drop-shadow-9);
      }

      .cls-7 {
        filter: url(#drop-shadow-6);
      }

      .cls-8 {
        filter: url(#drop-shadow-12);
      }

      .cls-39 {
        filter: url(#drop-shadow-13);
      }

      .cls-9 {
        filter: url(#drop-shadow-10);
      }

      .cls-40 {
        fill: #9e94ff;
        font-size: 18.49px;
        letter-spacing: .01em;
      }

      .cls-20 {
        fill: url(#linear-gradient-13);
      }

      .cls-41 {
        fill: url(#linear-gradient-4);
      }

      .cls-42 {
        fill: url(#linear-gradient-8);
      }

      .cls-10 {
        font-family: Anton-Regular, 'Anton Regular';
        font-size: 10.26px;
        letter-spacing: 0em;
      }

      .cls-43 {
        fill: url(#linear-gradient-12);
      }

      .cls-44 {
        fill: #fcfcfc;
      }
    </style>
    <clipPath id="clippath">
      <rect class="cls-21" x="-71.7" y="82.96" width="499.21" height="333.29" transform="translate(427.51 71.7) rotate(90)"/>
    </clipPath>
    <linearGradient id="linear-gradient" x1="-82.9" y1="256.44" x2="488.63" y2="256.44" gradientTransform="translate(427.67 71.44) rotate(90)" gradientUnits="userSpaceOnUse">
      <stop offset="0" stop-color="#8e7aff"/>
      <stop offset="1" stop-color="#9e94ff"/>
    </linearGradient>
    <filter id="drop-shadow-1" filterUnits="userSpaceOnUse">
      <feOffset dx="-10" dy="13"/>
      <feGaussianBlur result="blur" stdDeviation="2.45"/>
      <feFlood flood-color="#3913a0" flood-opacity=".1"/>
      <feComposite in2="blur" operator="in"/>
      <feComposite in="SourceGraphic"/>
    </filter>
    <filter id="drop-shadow-2" filterUnits="userSpaceOnUse">
      <feOffset dx="-6.76" dy="5.41"/>
      <feGaussianBlur result="blur-2" stdDeviation="2.71"/>
      <feFlood flood-color="#3913a0" flood-opacity=".16"/>
      <feComposite in2="blur-2" operator="in"/>
      <feComposite in="SourceGraphic"/>
    </filter>
    <linearGradient id="linear-gradient-2" x1="18.85" y1="-17.01" x2="40.07" y2="-17.01" gradientTransform="translate(2.98 67.57)" gradientUnits="userSpaceOnUse">
      <stop offset="0" stop-color="#7399f5"/>
      <stop offset="1" stop-color="#87adff"/>
    </linearGradient>
    <filter id="drop-shadow-3" filterUnits="userSpaceOnUse">
      <feOffset dx="-6.61" dy="5.29"/>
      <feGaussianBlur result="blur-3" stdDeviation="2.64"/>
      <feFlood flood-color="#3913a0" flood-opacity=".16"/>
      <feComposite in2="blur-3" operator="in"/>
      <feComposite in="SourceGraphic"/>
    </filter>
    <linearGradient id="linear-gradient-3" x1="55.96" y1="26.13" x2="76.78" y2="26.13" gradientTransform="translate(76.17 22.7) rotate(74)" xlink:href="#linear-gradient-2"/>
    <filter id="drop-shadow-4" filterUnits="userSpaceOnUse">
      <feOffset dx="-6.76" dy="5.41"/>
      <feGaussianBlur result="blur-4" stdDeviation="2.71"/>
      <feFlood flood-color="#3913a0" flood-opacity=".16"/>
      <feComposite in2="blur-4" operator="in"/>
      <feComposite in="SourceGraphic"/>
    </filter>
    <linearGradient id="linear-gradient-4" x1="23.86" y1="94.81" x2="45.09" y2="94.81" gradientTransform="translate(2.98 67.57)" gradientUnits="userSpaceOnUse">
      <stop offset="0" stop-color="#e4777f"/>
      <stop offset="1" stop-color="#f88b93"/>
    </linearGradient>
    <filter id="drop-shadow-5" filterUnits="userSpaceOnUse">
      <feOffset dx="-6.61" dy="5.29"/>
      <feGaussianBlur result="blur-5" stdDeviation="2.64"/>
      <feFlood flood-color="#3913a0" flood-opacity=".16"/>
      <feComposite in2="blur-5" operator="in"/>
      <feComposite in="SourceGraphic"/>
    </filter>
    <linearGradient id="linear-gradient-5" x1="139.43" y1="94.81" x2="160.24" y2="94.81" gradientTransform="translate(113.91 -10.61) rotate(45)" xlink:href="#linear-gradient-4"/>
    <filter id="drop-shadow-6" filterUnits="userSpaceOnUse">
      <feOffset dx="-6.76" dy="5.41"/>
      <feGaussianBlur result="blur-6" stdDeviation="2.71"/>
      <feFlood flood-color="#3913a0" flood-opacity=".16"/>
      <feComposite in2="blur-6" operator="in"/>
      <feComposite in="SourceGraphic"/>
    </filter>
    <linearGradient id="linear-gradient-6" x1="97.74" y1="155.81" x2="118.97" y2="155.81" gradientTransform="translate(2.98 67.57)" gradientUnits="userSpaceOnUse">
      <stop offset="0" stop-color="#e39e40"/>
      <stop offset="1" stop-color="#f7b254"/>
    </linearGradient>
    <filter id="drop-shadow-7" filterUnits="userSpaceOnUse">
      <feOffset dx="-6.61" dy="5.29"/>
      <feGaussianBlur result="blur-7" stdDeviation="2.64"/>
      <feFlood flood-color="#3913a0" flood-opacity=".16"/>
      <feComposite in2="blur-7" operator="in"/>
      <feComposite in="SourceGraphic"/>
    </filter>
    <linearGradient id="linear-gradient-7" x1="134.91" y1="199.53" x2="155.72" y2="199.53" xlink:href="#linear-gradient-6"/>
    <filter id="drop-shadow-8" filterUnits="userSpaceOnUse">
      <feOffset dx="-6.76" dy="5.41"/>
      <feGaussianBlur result="blur-8" stdDeviation="2.71"/>
      <feFlood flood-color="#3913a0" flood-opacity=".16"/>
      <feComposite in2="blur-8" operator="in"/>
      <feComposite in="SourceGraphic"/>
    </filter>
    <linearGradient id="linear-gradient-8" x1="211.32" y1="334.47" x2="232.55" y2="334.47" gradientTransform="translate(2.98 67.57)" gradientUnits="userSpaceOnUse">
      <stop offset="0" stop-color="#7ddebb"/>
      <stop offset="1" stop-color="#91f2cf"/>
    </linearGradient>
    <filter id="drop-shadow-9" filterUnits="userSpaceOnUse">
      <feOffset dx="-6.61" dy="5.29"/>
      <feGaussianBlur result="blur-9" stdDeviation="2.64"/>
      <feFlood flood-color="#3913a0" flood-opacity=".16"/>
      <feComposite in2="blur-9" operator="in"/>
      <feComposite in="SourceGraphic"/>
    </filter>
    <linearGradient id="linear-gradient-9" x1="248.44" y1="378.19" x2="269.25" y2="378.19" gradientTransform="translate(605.41 142.49) rotate(82.96)" xlink:href="#linear-gradient-8"/>
    <filter id="drop-shadow-10" filterUnits="userSpaceOnUse">
      <feOffset dx="-6.76" dy="5.41"/>
      <feGaussianBlur result="blur-10" stdDeviation="2.71"/>
      <feFlood flood-color="#3913a0" flood-opacity=".16"/>
      <feComposite in2="blur-10" operator="in"/>
      <feComposite in="SourceGraphic"/>
    </filter>
    <linearGradient id="linear-gradient-10" x1="195.58" y1="225.51" x2="216.8" y2="225.51" gradientTransform="translate(2.98 67.57)" gradientUnits="userSpaceOnUse">
      <stop offset="0" stop-color="#db8ded"/>
      <stop offset="1" stop-color="#efa1ff"/>
    </linearGradient>
    <filter id="drop-shadow-11" filterUnits="userSpaceOnUse">
      <feOffset dx="-6.61" dy="5.29"/>
      <feGaussianBlur result="blur-11" stdDeviation="2.64"/>
      <feFlood flood-color="#3913a0" flood-opacity=".16"/>
      <feComposite in2="blur-11" operator="in"/>
      <feComposite in="SourceGraphic"/>
    </filter>
    <linearGradient id="linear-gradient-11" x1="232.74" y1="269.22" x2="253.56" y2="269.22" xlink:href="#linear-gradient-10"/>
    <filter id="drop-shadow-12" filterUnits="userSpaceOnUse">
      <feOffset dx="-6.76" dy="5.41"/>
      <feGaussianBlur result="blur-12" stdDeviation="2.71"/>
      <feFlood flood-color="#3913a0" flood-opacity=".16"/>
      <feComposite in2="blur-12" operator="in"/>
      <feComposite in="SourceGraphic"/>
    </filter>
    <linearGradient id="linear-gradient-12" x1="72.76" y1="340.75" x2="93.99" y2="340.75" gradientTransform="translate(2.98 67.57)" gradientUnits="userSpaceOnUse">
      <stop offset="0" stop-color="#83caf5"/>
      <stop offset="1" stop-color="#97deff"/>
    </linearGradient>
    <filter id="drop-shadow-13" filterUnits="userSpaceOnUse">
      <feOffset dx="-6.61" dy="5.29"/>
      <feGaussianBlur result="blur-13" stdDeviation="2.64"/>
      <feFlood flood-color="#3913a0" flood-opacity=".16"/>
      <feComposite in2="blur-13" operator="in"/>
      <feComposite in="SourceGraphic"/>
    </filter>
    <linearGradient id="linear-gradient-13" x1="109.88" y1="296.21" x2="130.69" y2="296.21" xlink:href="#linear-gradient-12"/>
  </defs>
  <g class="cls-22">
    <g id="Layer_2" data-name="Layer 2">
      <g id="OBJECTS">
        <g class="cls-37">
          <g>
            <path class="cls-33" d="M-7.45,8.77L12.82-11.47l51.49,51.41c13.07,13.05,20.25,30.37,20.25,48.81,0,.16,0,.32,0,.49-.13,18.62-7.56,36.03-20.92,49.02-5.51,5.35-8.57,12.53-8.63,20.21,0,.07,0,.13,0,.2,0,7.6,2.96,14.74,8.35,20.12,10.89,10.87,28.78,11.06,39.9,.41l16.69-15.99c21.22-21.07,55.64-21.03,76.81,.11,10.37,10.36,16.04,24.1,15.93,38.77-.1,14.64-5.93,28.33-16.44,38.55-18.48,17.98-42.56,41.42-62.4,60.72-14.79,14.39-15.18,38.21-.88,53.09l.94,.98c7.48,7.79,17.51,12.13,28.23,12.24,10.63,.1,20.62-3.98,28.14-11.5l18.28-18.29c10.37-10.38,24.17-16.09,38.85-16.1,14.68,0,28.48,5.7,38.86,16.07l1.64,1.63c10.45,10.43,16.23,24.22,16.28,38.81,0,.07,0,.13,0,.2,0,14.53-5.67,28.19-15.98,38.48l-1.02,1.02c-7.92,7.9-12.29,18.41-12.29,29.59h0c0,11.19,4.36,21.69,12.27,29.59l62.75,62.66-20.27,20.24-62.75-62.66c-13.32-13.31-20.66-31-20.66-49.81v-.02c0-18.83,7.36-36.52,20.69-49.83l1.02-1.02c4.89-4.88,7.58-11.35,7.58-18.23,0-.03,0-.06,0-.1-.03-6.99-2.83-13.62-7.89-18.68l-1.64-1.63c-4.96-4.96-11.56-7.69-18.58-7.68-7.02,0-13.62,2.74-18.58,7.7l-18.27,18.28c-13.01,13.01-30.3,20.08-48.71,19.9-18.49-.18-35.76-7.65-48.63-21.04l-.94-.98c-12.21-12.71-18.76-29.42-18.49-47.02,.29-17.61,7.41-34.08,20.04-46.38,19.84-19.31,43.92-42.75,62.4-60.73,4.97-4.83,7.73-11.31,7.78-18.24,.03-6.93-2.63-13.44-7.54-18.34-4.86-4.85-11.32-7.53-18.2-7.53s-13.34,2.67-18.2,7.53l-.21,.21-16.79,16.08c-10.86,10.4-25.13,16.05-40.17,15.89-15.05-.16-29.19-6.09-39.83-16.72-10.81-10.79-16.74-25.11-16.75-40.36,0-.13,0-.27,0-.4,.11-15.4,6.25-29.79,17.3-40.52,7.83-7.6,12.18-17.8,12.25-28.7,0-.09,0-.19,0-.28,0-10.8-4.2-20.94-11.86-28.58L-7.45,8.77Z"/>
            <g class="cls-30">
              <polygon class="cls-3" points="1.97 -.64 3.39 -2.05 6.22 .77 4.8 2.18 1.97 -.64"/>
              <path class="cls-3" d="M10.42,7.79l1.41-1.41,5.62,5.61-1.41,1.41-5.62-5.61Zm11.24,11.22l1.41-1.41,5.62,5.61-1.41,1.41-5.62-5.61Zm11.24,11.22l1.41-1.41,5.62,5.61-1.41,1.41-5.62-5.61Zm6.77,128.42c0-2.42,.2-4.85,.6-7.23l1.97,.33c-.42,2.54-.62,5.14-.56,7.72l-2,.04c0-.28,0-.57,0-.85Zm.91,8.91l1.96-.4c.52,2.53,1.29,5.02,2.27,7.4l-1.85,.76c-1.03-2.5-1.83-5.1-2.38-7.75Zm1.76-23.99c.93-2.54,2.1-5,3.49-7.32l1.72,1.02c-1.32,2.21-2.44,4.57-3.33,6.99l-1.88-.69Zm1.8-102.12l1.41-1.41,5.62,5.61-1.41,1.41-5.62-5.61Zm2.59,141.04l1.68-1.09c1.4,2.15,3.02,4.19,4.81,6.07l-1.45,1.38c-1.88-1.96-3.57-4.1-5.04-6.36Zm3.89-52.8c.73-.83,1.51-1.65,2.31-2.42,1.1-1.07,2.16-2.19,3.15-3.33l1.51,1.31c-1.03,1.18-2.13,2.34-3.26,3.45-.76,.74-1.51,1.52-2.21,2.32l-1.5-1.32Zm4.68-77.01l1.48-1.34c1.81,2,3.49,4.14,4.99,6.36l-1.66,1.11c-1.44-2.14-3.06-4.2-4.81-6.13Zm2.6,141.5l1.17-1.62c2.1,1.51,4.34,2.83,6.68,3.92l-.85,1.81c-2.45-1.15-4.81-2.53-7-4.11Zm2.86-76.47c1.4-2.18,2.65-4.48,3.71-6.84l1.82,.82c-1.11,2.45-2.4,4.84-3.85,7.1l-1.68-1.08Zm3.22-52.14l1.8-.86c1.16,2.42,2.15,4.95,2.94,7.52l-1.91,.59c-.77-2.48-1.72-4.91-2.84-7.25Zm3.17,37.99c.71-2.49,1.25-5.05,1.59-7.62l1.98,.27c-.36,2.66-.91,5.32-1.65,7.9l-1.92-.55Zm1.42-23.15l1.98-.31c.41,2.65,.64,5.36,.67,8.05l-2,.02c-.03-2.59-.24-5.2-.65-7.76Zm3.97,120.63l.5-1.93c2.5,.64,5.07,1.05,7.65,1.23l-.13,1.99c-2.7-.18-5.4-.61-8.02-1.29Zm15.9-.9c2.57-.3,5.12-.85,7.58-1.62l.6,1.91c-2.58,.81-5.25,1.38-7.94,1.69l-.23-1.98Zm14.73-4.6c2.27-1.21,4.45-2.64,6.47-4.26l1.25,1.56c-2.11,1.69-4.4,3.2-6.78,4.46l-.94-1.76Zm3.94,132.81c0-1.35,.05-2.73,.16-4.08l1.99,.15c-.2,2.58-.2,5.2,0,7.78l-1.99,.15c-.1-1.33-.15-2.67-.15-4Zm1.37,11.99l1.95-.45c.59,2.53,1.37,5.02,2.33,7.42l-1.86,.74c-1-2.49-1.81-5.09-2.42-7.71Zm.02-24.06c.61-2.62,1.43-5.21,2.43-7.71l1.86,.74c-.96,2.4-1.75,4.9-2.34,7.42l-1.95-.45Zm5.98,39.02l1.72-1.02c1.32,2.22,2.82,4.36,4.47,6.37l-1.55,1.27c-1.71-2.08-3.27-4.31-4.64-6.62Zm.04-53.97c1.37-2.31,2.94-4.53,4.65-6.61l1.54,1.27c-1.65,2-3.16,4.14-4.47,6.36l-1.72-1.02Zm.91-115.35l5.74-5.49,1.38,1.44-5.74,5.49-1.38-1.44Zm9.2,181.83l1.38-1.45c1.89,1.79,3.91,3.46,6.02,4.95l-1.15,1.63c-2.19-1.54-4.29-3.27-6.24-5.13Zm.08-78.93l5.69-5.54,1.4,1.43-5.69,5.54-1.4-1.43Zm2.19-113.89l2.36-2.26c1.11-1.11,2.32-2.18,3.56-3.17l1.24,1.57c-1.18,.94-2.33,1.96-3.4,3.03l-2.38,2.28-1.38-1.44Zm9.2,102.81l5.69-5.54,1.4,1.43-5.69,5.54-1.4-1.43Zm1.71,99.31l.9-1.78c2.31,1.17,4.73,2.17,7.2,2.99l-.63,1.9c-2.56-.84-5.07-1.89-7.47-3.1Zm1.86-211.93c2.42-1.23,4.97-2.22,7.58-2.94l.54,1.92c-2.49,.69-4.91,1.63-7.21,2.8l-.91-1.78Zm7.82,101.54l5.7-5.54,1.4,1.43-5.7,5.54-1.4-1.43Zm5.63,115.46l.34-1.97c2.56,.44,5.16,.7,7.76,.76l-.05,2c-2.69-.07-5.4-.33-8.05-.79Zm2.14-221.33c1-.07,2.01-.11,3.02-.11,1.7,0,3.42,.11,5.11,.32l-.25,1.98c-1.61-.2-3.24-.3-4.86-.3-.96,0-1.92,.04-2.87,.11l-.15-1.99Zm3.61,94.79l5.69-5.54,1.4,1.43-5.69,5.54-1.4-1.43Zm10.13,124.96c2.58-.32,5.15-.83,7.64-1.52l.54,1.92c-2.59,.72-5.26,1.25-7.93,1.58l-.24-1.98Zm1.26-136.04l5.7-5.54,1.4,1.43-5.7,5.54-1.4-1.43Zm.43-79.81l.63-1.89c2.57,.86,5.07,1.98,7.42,3.33l-1,1.73c-2.23-1.28-4.61-2.35-7.06-3.16Zm10.96,68.73l3.89-3.79c.59-.57,1.16-1.16,1.7-1.76l1.48,1.34c-.57,.63-1.17,1.25-1.79,1.85l-3.89,3.79-1.4-1.43Zm2.32,142.96c2.37-1.06,4.67-2.3,6.85-3.7l1.08,1.68c-2.27,1.45-4.66,2.74-7.12,3.84l-.82-1.82Zm.06-204.02l1.32-1.5c.67,.59,1.33,1.21,1.97,1.84,1.29,1.28,2.49,2.66,3.59,4.09l-1.59,1.21c-1.04-1.36-2.19-2.67-3.42-3.89-.6-.6-1.23-1.19-1.87-1.75Zm7.82,49.31c1.32-2.21,2.43-4.56,3.28-6.99l1.89,.66c-.9,2.56-2.06,5.03-3.45,7.35l-1.72-1.02Zm1.54-37.1l1.8-.88c1.19,2.43,2.14,4.99,2.83,7.62l-1.94,.5c-.65-2.5-1.56-4.93-2.69-7.24Zm3.57,22.6c.36-2.54,.47-5.15,.32-7.72l2-.11c.16,2.7,.04,5.44-.34,8.11l-1.98-.28Zm.09,160.84c.91-.79,1.8-1.63,2.65-2.48l2.99-2.99,1.43,1.4-3,3c-.88,.89-1.81,1.75-2.75,2.57l-1.32-1.5Zm11.27-11.1l5.62-5.62,1.42,1.41-5.62,5.62-1.42-1.41Zm11.31-11.23c2.02-1.82,4.23-3.44,6.55-4.81l1.02,1.72c-2.21,1.31-4.31,2.85-6.23,4.58l-1.34-1.48Zm13.91-8.26c2.55-.9,5.21-1.55,7.9-1.94l.29,1.98c-2.56,.37-5.09,.99-7.52,1.85l-.67-1.88Zm15.91-.32l.1-1.99c2.71,.14,5.42,.54,8.04,1.2l-.49,1.94c-2.5-.63-5.08-1.01-7.66-1.15Zm10.11,112.05l2-.06c.07,2.59,.33,5.2,.76,7.75l-1.97,.34c-.45-2.64-.72-5.35-.79-8.03Zm.34-8.06c.3-2.67,.8-5.34,1.47-7.94l1.94,.5c-.65,2.5-1.13,5.08-1.42,7.66l-1.99-.22Zm2.36,23.94l1.9-.61c.79,2.47,1.77,4.9,2.9,7.23l-1.8,.87c-1.17-2.41-2.18-4.93-3.01-7.49Zm1.69-39.52c1.04-2.48,2.26-4.9,3.64-7.21l1.72,1.02c-1.33,2.23-2.51,4.57-3.51,6.96l-1.85-.77Zm.44-84.65l.86-1.8c2.45,1.16,4.79,2.57,6.97,4.19l-1.19,1.6c-2.07-1.54-4.3-2.88-6.63-3.98Zm4.92,138.65l1.66-1.12c1.45,2.14,3.07,4.2,4.81,6.13l-1.48,1.34c-1.81-1.99-3.49-4.13-4.99-6.35Zm2.9-67.83c1.28-1.58,2.66-3.11,4.11-4.55l1.35-1.35,1.43,1.4-1.36,1.36c-1.4,1.39-2.73,2.87-3.96,4.4l-1.56-1.26Zm4.6-61.63l1.41-1.41,.23,.22c1.85,1.85,3.53,3.86,5,5.98l-1.65,1.13c-1.4-2.02-3-3.94-4.76-5.71l-.23-.22Zm3.08,141.52l1.41-1.41,5.62,5.61-1.41,1.41-5.62-5.61Zm2.61-91.8c1.41-2.16,2.61-4.47,3.56-6.86l1.86,.74c-1,2.52-2.26,4.94-3.74,7.21l-1.67-1.09Zm3.05-37.02l1.83-.79c1.08,2.48,1.92,5.08,2.49,7.73l-1.95,.42c-.55-2.52-1.34-4.99-2.37-7.36Zm2.64,22.74c.42-2.3,.63-4.67,.63-7.01,0-.23,0-.46,0-.69l2-.04c0,.24,0,.48,0,.72,0,2.47-.22,4.95-.66,7.37l-1.97-.36Zm2.94,117.32l1.41-1.41,5.62,5.61-1.41,1.41-5.62-5.61Zm11.24,11.23l1.41-1.41,5.62,5.61-1.41,1.41-5.62-5.61Zm11.24,11.22l1.41-1.41,5.62,5.61-1.41,1.41-5.62-5.61Zm11.24,11.23l1.41-1.41,5.62,5.61-1.41,1.41-5.62-5.61Z"/>
            </g>
          </g>
        </g>
        <g>
          <g>
            <g>
              <path class="cls-5" d="M15.11,36.71v27.69c0,1.47,1.19,2.67,2.67,2.67H55.63c.65,0,1.27,.24,1.76,.66l10.2,8.97c1.01,.88,2.51,.88,3.52,0l10.2-8.97c.49-.43,1.11-.66,1.76-.66h37.85c1.47,0,2.67-1.19,2.67-2.67v-27.69c0-1.47-1.19-2.67-2.67-2.67H17.78c-1.47,0-2.67,1.19-2.67,2.67Z"/>
              <g>
                <g>
                  <rect class="cls-1" x="21.83" y="39.95" width="21.23" height="21.23" rx="5.29" ry="5.29"/>
                  <path class="cls-3" d="M37.79,53.71c-.58,0-1.08,.37-1.26,.89h-.97v-3.63h.89c1.48,0,2.68-1.2,2.68-2.68s-1.16-2.61-2.54-2.67c-.51-1.08-1.6-1.79-2.81-1.79-.11,0-.21,0-.3,.02-.66-.59-1.49-.91-2.37-.91-1.67,0-3.11,1.18-3.47,2.8-1.11,.34-1.88,1.37-1.88,2.55,0,1.48,1.2,2.68,2.68,2.68h.89v3.63h-.97c-.18-.52-.68-.89-1.26-.89-.74,0-1.34,.6-1.34,1.34s.6,1.34,1.34,1.34c.58,0,1.08-.37,1.26-.89h1.41c.25,0,.45-.2,.45-.45v-4.07h1.78v4.6c-.52,.18-.89,.68-.89,1.26,0,.74,.6,1.34,1.34,1.34s1.34-.6,1.34-1.34c0-.58-.37-1.08-.89-1.26v-4.6h1.78v4.07c0,.25,.2,.45,.45,.45h1.41c.18,.52,.68,.89,1.26,.89,.74,0,1.34-.6,1.34-1.34s-.6-1.34-1.34-1.34Zm-10.7,1.78c-.25,0-.45-.2-.45-.45s.2-.45,.45-.45,.45,.2,.45,.45-.2,.45-.45,.45Zm5.35,1.78c-.25,0-.45-.2-.45-.45,0-.25,.2-.45,.45-.45s.45,.2,.45,.45-.2,.45-.45,.45Zm-5.8-8.98c0-.86,.61-1.59,1.46-1.75,.02,0,.03,0,.05-.01,.33-.05,.66-.01,.97,.12,.23,.1,.49-.01,.58-.24,.1-.23-.01-.49-.24-.58-.28-.12-.58-.19-.87-.21,.37-1.05,1.37-1.79,2.51-1.79,.72,0,1.4,.29,1.91,.8,.1,.1,.25,.15,.39,.13,.11-.02,.25-.04,.38-.04,.76,0,1.45,.39,1.86,1.02-.08,.02-.15,.05-.23,.08-.23,.1-.33,.36-.24,.58,.1,.23,.36,.33,.58,.24,1.17-.49,2.48,.37,2.48,1.64,0,.98-.8,1.78-1.78,1.78h-8.03c-.98,0-1.78-.8-1.78-1.78Zm11.15,7.19c-.25,0-.45-.2-.45-.45s.2-.45,.45-.45,.45,.2,.45,.45c0,.25-.2,.45-.45,.45Z"/>
                </g>
                <text class="cls-24" transform="translate(48.23 53.07)"><tspan x="0" y="0">Team Expension</tspan></text>
              </g>
            </g>
            <g class="cls-29">
              <circle class="cls-18" cx="69.35" cy="93.7" r="10.41" transform="translate(-39.84 134.53) rotate(-74)"/>
              <text class="cls-10" transform="translate(63.98 98.07)"><tspan x="0" y="0">01</tspan></text>
            </g>
          </g>
          <g>
            <g>
              <path class="cls-4" d="M127.37,153.16v-4.62c0-1.47-1.19-2.67-2.67-2.67H21.56c-1.47,0-2.67,1.19-2.67,2.67v27.7c0,1.47,1.19,2.67,2.67,2.67H124.71c1.47,0,2.67-1.19,2.67-2.67v-4.62c0-.75,.31-1.46,.87-1.97l5.78-5.29c1.15-1.06,1.15-2.88,0-3.93l-5.78-5.29c-.55-.51-.87-1.22-.87-1.97Z"/>
              <g>
                <g>
                  <rect class="cls-41" x="26.85" y="151.77" width="21.23" height="21.23" rx="5.29" ry="5.29"/>
                  <g>
                    <path class="cls-3" d="M44.71,161.05l-1.7-.34c-.11-.37-.26-.74-.45-1.08l.95-1.42c.12-.18,.09-.41-.06-.56l-1.26-1.26c-.15-.15-.39-.17-.56-.06l-1.42,.95c-.34-.19-.71-.34-1.08-.45l-.34-1.7c-.04-.21-.22-.36-.44-.36h-1.78c-.21,0-.4,.15-.44,.36l-.34,1.7c-.37,.11-.74,.26-1.08,.45l-1.42-.95c-.18-.12-.41-.09-.56,.06l-1.26,1.26c-.15,.15-.17,.39-.06,.56l.95,1.42c-.19,.34-.34,.71-.45,1.08l-1.7,.34c-.21,.04-.36,.22-.36,.44v1.78c0,.21,.15,.4,.36,.44l1.7,.34c.11,.37,.26,.74,.45,1.08l-.95,1.42c-.12,.18-.09,.41,.06,.56l1.26,1.26c.15,.15,.39,.17,.56,.06l1.42-.95c.34,.19,.71,.34,1.08,.45l.34,1.7c.04,.21,.22,.36,.44,.36h1.78c.21,0,.4-.15,.44-.36l.34-1.7c.37-.11,.74-.26,1.08-.45l1.42,.95c.18,.12,.41,.09,.56-.06l1.26-1.26c.15-.15,.17-.39,.06-.56l-.95-1.42c.19-.34,.34-.71,.45-1.08l1.7-.34c.21-.04,.36-.22,.36-.44v-1.78c0-.21-.15-.4-.36-.44Zm-.53,1.85l-1.62,.32c-.17,.03-.31,.16-.35,.33-.12,.48-.31,.94-.56,1.36-.09,.15-.09,.33,.01,.48l.9,1.35-.74,.74-1.35-.9c-.14-.1-.33-.1-.48-.01-.42,.26-.88,.45-1.36,.56-.17,.04-.3,.18-.33,.35l-.32,1.62h-1.05s-.32-1.62-.32-1.62c-.03-.17-.16-.31-.33-.35-.48-.12-.94-.31-1.36-.56-.15-.09-.33-.09-.48,.01l-1.35,.9-.74-.74,.9-1.35c.1-.14,.1-.33,.01-.48-.26-.42-.45-.88-.56-1.36-.04-.17-.18-.3-.35-.33l-1.62-.32v-1.05s1.62-.32,1.62-.32c.17-.03,.31-.16,.35-.33,.12-.48,.31-.94,.56-1.36,.09-.15,.09-.33-.01-.48l-.9-1.35,.74-.74,1.35,.9c.14,.1,.33,.1,.48,.01,.42-.26,.88-.45,1.36-.56,.17-.04,.3-.18,.33-.35l.32-1.62h1.05s.32,1.62,.32,1.62c.03,.17,.16,.31,.33,.35,.48,.12,.94,.31,1.36,.56,.15,.09,.33,.09,.48-.01l1.35-.9,.74,.74-.9,1.35c-.1,.14-.1,.33-.01,.48,.26,.42,.45,.88,.56,1.36,.04,.17,.18,.3,.35,.33l1.62,.32v1.05Z"/>
                    <path class="cls-3" d="M37.46,158.37c-2.21,0-4.01,1.8-4.01,4.01s1.8,4.01,4.01,4.01,4.01-1.8,4.01-4.01-1.8-4.01-4.01-4.01Zm0,7.14c-1.72,0-3.12-1.4-3.12-3.12s1.4-3.12,3.12-3.12,3.12,1.4,3.12,3.12-1.4,3.12-3.12,3.12Z"/>
                    <path class="cls-3" d="M37.46,160.15c-1.23,0-2.23,1-2.23,2.23s1,2.23,2.23,2.23,2.23-1,2.23-2.23-1-2.23-2.23-2.23Zm0,3.57c-.74,0-1.34-.6-1.34-1.34s.6-1.34,1.34-1.34,1.34,.6,1.34,1.34-.6,1.34-1.34,1.34Z"/>
                  </g>
                </g>
                <text class="cls-26" transform="translate(52.5 161.1)"><tspan class="cls-32"><tspan x="0" y="0">Insurance Model </tspan></tspan><tspan class="cls-35"><tspan x="0" y="7.97">Elaboration</tspan></tspan></text>
              </g>
            </g>
            <g class="cls-36">
              <circle class="cls-13" cx="152.82" cy="162.38" r="10.41" transform="translate(-70.06 155.62) rotate(-45)"/>
              <text class="cls-10" transform="translate(147.45 166.75)"><tspan x="0" y="0">02</tspan></text>
            </g>
          </g>
          <g>
            <g>
              <path class="cls-7" d="M94,209.54v27.69c0,1.47,1.19,2.67,2.67,2.67h37.85c.65,0,1.27,.24,1.76,.66l10.2,8.97c1.01,.88,2.51,.88,3.52,0l10.2-8.97c.49-.43,1.11-.66,1.76-.66h37.85c1.47,0,2.67-1.19,2.67-2.67v-27.69c0-1.47-1.19-2.67-2.67-2.67H96.67c-1.47,0-2.67,1.19-2.67,2.67Z"/>
              <g>
                <g>
                  <rect class="cls-11" x="100.72" y="212.78" width="21.23" height="21.23" rx="5.29" ry="5.29"/>
                  <path class="cls-44" d="M119.48,223.9h.22c.28,0,.51-.23,.51-.51s-.23-.51-.51-.51h-.22s.67-1.29,.67-1.29c.17-.34-.07-.74-.45-.74h-1.99c-.49-1.39-1.4-2.64-2.59-3.53-1.33-1.01-2.92-1.54-4.59-1.54-4.22,0-7.64,3.41-7.64,7.61s3.43,7.61,7.64,7.61c1.67,0,3.26-.53,4.59-1.54,1.18-.9,2.09-2.14,2.59-3.53h1.99c.38,0,.63-.4,.45-.74l-.67-1.29Zm-1.14-1.01h-1.91s.51-1.01,.51-1.01h1.93s-.52,1.01-.52,1.01Zm-4.29,0c-.25-1.72-1.73-3.04-3.52-3.04-1.96,0-3.55,1.59-3.55,3.55s1.59,3.55,3.55,3.55c1.79,0,3.27-1.33,3.52-3.04h1.02c-.25,2.28-2.19,4.06-4.54,4.06-2.52,0-4.57-2.05-4.57-4.57s2.05-4.57,4.57-4.57c2.35,0,4.28,1.78,4.54,4.06h-1.02Zm-2.08,0c-.21-.59-.77-1.01-1.43-1.01-.84,0-1.52,.68-1.52,1.52s.68,1.52,1.52,1.52c.66,0,1.23-.42,1.43-1.01h1.05c-.24,1.16-1.26,2.03-2.49,2.03-1.4,0-2.54-1.14-2.54-2.54s1.14-2.54,2.54-2.54c1.23,0,2.25,.87,2.49,2.03h-1.05Zm-.93,.51c0,.28-.23,.51-.51,.51s-.51-.23-.51-.51,.23-.51,.51-.51,.51,.23,.51,.51Zm-.51,6.6c-3.66,0-6.63-2.96-6.63-6.6s2.97-6.6,6.63-6.6c2.66,0,5.08,1.64,6.09,4.06h0c-.19,0-.37,.11-.45,.28l-.3,.61c-.71-2.27-2.83-3.93-5.33-3.93-3.08,0-5.58,2.5-5.58,5.58s2.5,5.58,5.58,5.58c2.5,0,4.63-1.66,5.33-3.93l.3,.61c.09,.17,.26,.28,.45,.28h0c-1.01,2.42-3.43,4.06-6.09,4.06Zm6.4-5.07l-.51-1.01h1.91s.52,1.01,.52,1.01h-1.93Z"/>
                </g>
                <text class="cls-24" transform="translate(124.22 226.76)"><tspan x="0" y="0">Terms &amp; Conditions</tspan></text>
              </g>
            </g>
            <g class="cls-2">
              <circle class="cls-15" cx="148.29" cy="267.11" r="10.41"/>
              <text class="cls-10" transform="translate(142.93 271.48)"><tspan x="0" y="0">03</tspan></text>
            </g>
          </g>
          <g>
            <g>
              <path class="cls-6" d="M207.59,388.19v27.69c0,1.47,1.19,2.67,2.67,2.67h37.85c.65,0,1.27,.24,1.76,.66l10.2,8.97c1.01,.88,2.51,.88,3.52,0l10.2-8.97c.49-.43,1.11-.66,1.76-.66h37.85c1.47,0,2.67-1.19,2.67-2.67v-27.69c0-1.47-1.19-2.67-2.67-2.67h-103.15c-1.47,0-2.67,1.19-2.67,2.67Z"/>
              <g>
                <g>
                  <rect class="cls-42" x="214.31" y="391.43" width="21.23" height="21.23" rx="5.29" ry="5.29"/>
                  <g>
                    <path class="cls-44" d="M224.92,395.67c-2.43,0-4.41,1.96-4.41,4.41s1.97,4.41,4.41,4.41,4.41-1.96,4.41-4.41-1.97-4.41-4.41-4.41Zm0,7.83c-.07,0-.33-.15-.58-.83-.07-.2-.14-.41-.19-.64h1.54c-.05,.23-.12,.44-.19,.64-.25,.68-.51,.83-.58,.83Zm-.93-2.44c-.03-.31-.05-.64-.05-.98s.02-.67,.05-.98h1.86c.03,.31,.05,.64,.05,.98s-.02,.67-.05,.98h-1.86Zm-2.35-1.97h1.37c-.03,.32-.04,.65-.04,.99s.02,.66,.04,.98h-1.37c-.19-.64-.19-1.33,0-1.97Zm3.29-2.44c.07,0,.33,.15,.58,.83,.07,.2,.14,.41,.19,.64h-1.54c.05-.23,.12-.44,.19-.64,.25-.68,.51-.83,.58-.83Zm1.91,2.45h1.37c.19,.64,.19,1.32,0,1.96h-1.37c.03-.32,.04-.65,.04-.98s-.02-.66-.04-.98Zm.9-.98h-1.04c-.08-.39-.19-.79-.35-1.16,.37,.17,.7,.4,1,.69,.15,.15,.28,.3,.39,.47Zm-4.24-1.16c-.16,.37-.27,.77-.35,1.16h-1.04c.11-.16,.24-.32,.39-.47,.29-.29,.63-.53,1-.69Zm-1.39,5.08h1.04c.08,.39,.19,.79,.35,1.16-.37-.17-.7-.4-1-.69-.15-.15-.28-.3-.39-.47Zm4.24,1.15c.16-.37,.27-.77,.35-1.16h1.04c-.11,.16-.24,.32-.39,.47-.29,.29-.63,.53-1,.69Z"/>
                    <path class="cls-44" d="M224.92,393.68c-3.51,0-6.37,2.87-6.37,6.4,0,1.42,.46,2.76,1.32,3.88l4.07,5.46h-2.94c-.27,0-.49,.22-.49,.49s.22,.49,.49,.49h7.84c.27,0,.49-.22,.49-.49s-.22-.49-.49-.49h-2.94s4.17-5.58,4.17-5.58c0,0,0,0,0,0,.8-1.1,1.22-2.39,1.22-3.75,0-3.53-2.86-6.4-6.37-6.4Zm4.36,9.57l-4.36,5.84s-4.27-5.72-4.27-5.73c-.73-.95-1.12-2.08-1.12-3.28,0-2.99,2.42-5.42,5.39-5.42,2.97,0,5.39,2.43,5.39,5.42,0,1.15-.36,2.25-1.03,3.17Z"/>
                  </g>
                </g>
                <text class="cls-23" transform="translate(239.28 404.62)"><tspan x="0" y="0">MVP Launch</tspan></text>
              </g>
            </g>
            <g class="cls-38">
              <circle class="cls-19" cx="261.83" cy="445.76" r="10.41" transform="translate(-212.68 650.94) rotate(-82.96)"/>
              <text class="cls-10" transform="translate(256.46 450.13)"><tspan x="0" y="0">06</tspan></text>
            </g>
          </g>
          <g>
            <g>
              <path class="cls-9" d="M191.84,279.23v27.69c0,1.47,1.19,2.67,2.67,2.67h37.85c.65,0,1.27,.24,1.76,.66l10.2,8.97c1.01,.88,2.51,.88,3.52,0l10.2-8.97c.49-.43,1.11-.66,1.76-.66h37.85c1.47,0,2.67-1.19,2.67-2.67v-27.69c0-1.47-1.19-2.67-2.67-2.67h-103.15c-1.47,0-2.67,1.19-2.67,2.67Z"/>
              <g>
                <g>
                  <rect class="cls-34" x="198.56" y="282.47" width="21.23" height="21.23" rx="5.29" ry="5.29"/>
                  <g>
                    <path class="cls-3" d="M206.31,296.09h0s0,0,0,0h8.54c.21,0,.4-.14,.45-.34l1.89-6.6c.04-.14,.01-.3-.08-.41s-.23-.19-.38-.19h-11.52s-.34-1.52-.34-1.52c-.05-.22-.24-.37-.46-.37h-2.83c-.26,0-.47,.21-.47,.47s.21,.47,.47,.47h2.45c.06,.27,1.61,7.26,1.7,7.66-.5,.22-.85,.72-.85,1.3,0,.78,.63,1.41,1.41,1.41h8.55c.26,0,.47-.21,.47-.47s-.21-.47-.47-.47h-8.55c-.26,0-.47-.21-.47-.47,0-.26,.21-.47,.47-.47Zm9.81-6.6l-1.62,5.66h-7.81s-1.26-5.66-1.26-5.66h10.68Z"/>
                    <path class="cls-3" d="M205.84,299.38c0,.78,.63,1.41,1.41,1.41s1.41-.63,1.41-1.41-.63-1.41-1.41-1.41-1.41,.63-1.41,1.41Zm1.41-.47c.26,0,.47,.21,.47,.47s-.21,.47-.47,.47-.47-.21-.47-.47c0-.26,.21-.47,.47-.47Z"/>
                    <path class="cls-3" d="M212.5,299.38c0,.78,.63,1.41,1.41,1.41s1.41-.63,1.41-1.41-.63-1.41-1.41-1.41-1.41,.63-1.41,1.41Zm1.41-.47c.26,0,.47,.21,.47,.47,0,.26-.21,.47-.47,.47s-.47-.21-.47-.47c0-.26,.21-.47,.47-.47Z"/>
                  </g>
                </g>
                <text class="cls-23" transform="translate(224.44 295.2)"><tspan x="0" y="0">Marketing Strategy</tspan></text>
              </g>
            </g>
            <g class="cls-31">
              <circle class="cls-14" cx="246.13" cy="336.8" r="10.41"/>
              <text class="cls-10" transform="translate(240.76 341.17)"><tspan x="0" y="0">05</tspan></text>
            </g>
          </g>
          <g>
            <g>
              <path class="cls-8" d="M177.51,422.09v-27.69c0-1.47-1.19-2.67-2.67-2.67h-37.85c-.65,0-1.27-.24-1.76-.66l-10.2-8.97c-1.01-.88-2.51-.88-3.52,0l-10.2,8.97c-.49,.43-1.11,.66-1.76,.66h-37.85c-1.47,0-2.67,1.19-2.67,2.67v27.69c0,1.47,1.19,2.67,2.67,2.67h103.15c1.47,0,2.67-1.19,2.67-2.67Z"/>
              <g>
                <g>
                  <rect class="cls-43" x="75.74" y="397.72" width="21.23" height="21.23" rx="5.29" ry="5.29"/>
                  <g>
                    <path class="cls-44" d="M93.92,408.59c.11-.16,.11-.37,0-.52-.93-1.28-2.72-3.02-4.57-3.92-1.01-.49-2.02-.75-2.99-.75s-1.98,.25-2.99,.75c-1.83,.89-3.63,2.62-4.57,3.92-.11,.16-.11,.37,0,.52,.93,1.28,2.72,3.02,4.57,3.92,1.01,.49,2.02,.75,2.99,.75,2,0,3.86-1.05,5.37-2.35,1.33-1.14,2.15-2.27,2.19-2.32Zm-7.56,3.77c-2.54,0-5.06-2.07-6.63-4.03,.75-.93,3.48-4.03,6.63-4.03,2.53,0,5.05,2.07,6.63,4.03-.75,.93-3.48,4.03-6.63,4.03Z"/>
                    <path class="cls-44" d="M86.36,405.19c-1.73,0-3.14,1.41-3.14,3.14s1.41,3.14,3.14,3.14,3.14-1.41,3.14-3.14-1.41-3.14-3.14-3.14Zm0,5.37c-1.23,0-2.24-1-2.24-2.24s1-2.24,2.24-2.24,2.24,1,2.24,2.24-1,2.24-2.24,2.24Z"/>
                    <path class="cls-44" d="M86.36,406.98c-.74,0-1.34,.6-1.34,1.34s.6,1.34,1.34,1.34,1.34-.6,1.34-1.34-.6-1.34-1.34-1.34Zm0,1.79c-.25,0-.45-.2-.45-.45s.2-.45,.45-.45,.45,.2,.45,.45-.2,.45-.45,.45Z"/>
                    <path class="cls-44" d="M93.55,413.29c-.25,0-.45,.2-.45,.45v.71s-1.03-1.03-1.03-1.03c-.17-.17-.46-.17-.63,0-.17,.17-.17,.46,0,.63l1.03,1.03h-.71c-.25,0-.45,.2-.45,.45,0,.25,.2,.45,.45,.45h1.79c.23,0,.42-.18,.45-.4,0-.01,0-.03,0-.04,0,0,0,0,0,0v-1.79c0-.25-.2-.45-.45-.45Z"/>
                    <path class="cls-44" d="M91.76,401.58h.71s-1.03,1.03-1.03,1.03c-.17,.17-.17,.46,0,.63,.09,.09,.2,.13,.32,.13s.23-.04,.32-.13l1.03-1.03v.71c0,.25,.2,.45,.45,.45s.45-.2,.45-.45v-1.79s0,0,0,0c0-.23-.17-.42-.4-.44-.01,0-.03,0-.04,0h-1.79c-.25,0-.45,.2-.45,.45s.2,.45,.45,.45Z"/>
                    <path class="cls-44" d="M80.95,415.08h-.71s1.03-1.03,1.03-1.03c.17-.17,.17-.46,0-.63-.17-.17-.46-.17-.63,0l-1.03,1.03v-.71c0-.25-.2-.45-.45-.45s-.45,.2-.45,.45v1.79s0,0,0,0c0,.25,.2,.45,.45,.45h1.79c.25,0,.45-.2,.45-.45s-.2-.45-.45-.45Z"/>
                    <path class="cls-44" d="M79.16,403.37c.25,0,.45-.2,.45-.45v-.71s1.03,1.03,1.03,1.03c.17,.17,.46,.17,.63,0,.17-.17,.17-.46,0-.63l-1.03-1.03h.71c.25,0,.45-.2,.45-.45s-.2-.45-.45-.45h-1.79c-.25,0-.45,.2-.45,.45,0,0,0,0,0,0v1.79c0,.25,.2,.45,.45,.45Z"/>
                  </g>
                </g>
                <text class="cls-25" transform="translate(101.85 410.9)"><tspan x="0" y="0">Making Partners</tspan></text>
              </g>
            </g>
            <g class="cls-39">
              <circle class="cls-20" cx="123.27" cy="363.78" r="10.41"/>
              <text class="cls-10" transform="translate(117.9 368.15)"><tspan x="0" y="0">04</tspan></text>
            </g>
          </g>
        </g>
        <g>
          <g>
            <text class="cls-28" transform="translate(131.04 23.73)"><tspan class="cls-40"><tspan x="0" y="0">Roadmap</tspan></tspan><tspan class="cls-16"><tspan x="0" y="27.74">WheelDeal</tspan></tspan></text>
            <text class="cls-27" transform="translate(130.74 78.49)"><tspan x="0" y="0">One car, many drivers.</tspan></text>
            <line class="cls-12" x1="131.04" y1="60.52" x2="336.24" y2="60.52"/>
          </g>
          <text class="cls-17" transform="translate(26.57 459.69)"><tspan x="0" y="0">Roadmap for next 6 months</tspan></text>
        </g>
      </g>
    </g>
  </g>
</svg>